%
M48
M72
T01C0.01378
T02C0.02000
T03C0.02362
T04C0.03543
T05C0.03937
T06C0.04000
T07C0.05000
T08C0.05500
T09C0.06000
T10C0.09843
T11C0.10000
T12C0.13000
%
T01
X106095Y123433
X109095Y117933
X116595Y119433
X117595Y113433
X121595Y126433
X116595Y136433
X117220Y141308
X129595Y136933
X134595Y129933
X133595Y117433
X138595Y110433
X143095Y110433
X154095Y116933
X153595Y120933
X167595Y131433
X167845Y136183
X173095Y141933
X164095Y148933
X156095Y153433
X151595Y157433
X149595Y150433
X154095Y147933
X154095Y142433
X143595Y142933
X140595Y145933
X131095Y147433
X126470Y153183
X130095Y156933
X115095Y172433
X104095Y174433
X101095Y179933
X94720Y191058
X82845Y187558
X66095Y174933
X51095Y171933
X54595Y148433
X64095Y144433
X81095Y144433
X88095Y163933
X104595Y162433
X109720Y153183
X104595Y132933
X140095Y98433
X158595Y99433
X166845Y96308
X174595Y100433
X174595Y107433
X175095Y114933
X175345Y124433
X188095Y118933
X187595Y111433
X192220Y110058
X195595Y117433
X212595Y109433
X213095Y101433
X221095Y100933
X228595Y103433
X229095Y97433
X237595Y99433
X237595Y106933
X238595Y113433
X229095Y111433
X221095Y112433
X213095Y117933
X220095Y124933
X226095Y129933
X228595Y120933
X211595Y131433
X206595Y137433
X207595Y144933
X199595Y143433
X190595Y138433
X188095Y152433
X198595Y152433
X201595Y156433
X209095Y154933
X222595Y155433
X228095Y151933
X231595Y155433
X238595Y151433
X227595Y145433
X228595Y138933
X216595Y138433
X240595Y161433
X247095Y172933
X247595Y178343
X243095Y180933
X266595Y178933
X266595Y172933
X266595Y168433
X270595Y164433
X259095Y146433
X259595Y118933
X264595Y119433
X254095Y118933
X250595Y102933
X238095Y91433
X265095Y102933
X190970Y101308
X267095Y189933
X258595Y203933
X247220Y211433
X64595Y206433
T02
X95095Y106933
X95095Y111933
X95095Y116933
X95095Y121933
X95095Y126933
X100095Y126933
X100095Y121933
X100095Y116933
X100095Y111933
X100095Y106933
T03
X55595Y189591
X55595Y209276
T04
X44965Y185654
X44965Y213213
T05
X84095Y86933
X94095Y86933
X104095Y86933
X114095Y86933
X124095Y86933
X134095Y86933
X144095Y86933
X154095Y86933
X164095Y86933
X174095Y86933
X174095Y76933
X164095Y76933
X154095Y76933
X144095Y76933
X134095Y76933
X124095Y76933
X124095Y66933
X134095Y66933
X144095Y66933
X154095Y66933
X164095Y66933
X174095Y66933
X184095Y66933
X184095Y76933
X194095Y76933
X194095Y66933
X204095Y66933
X204095Y76933
X214095Y76933
X214095Y66933
X224095Y66933
X224095Y76933
X234095Y76933
X234095Y66933
X234095Y86933
X224095Y86933
X214095Y86933
X204095Y86933
X194095Y86933
X184095Y86933
X259442Y99252
X234095Y166933
X224095Y166933
X214095Y166933
X204095Y166933
X194095Y166933
X184095Y166933
X174095Y166933
X164095Y166933
X154095Y166933
X144095Y166933
X134095Y166933
X124095Y166933
X124095Y176933
X134095Y176933
X144095Y176933
X154095Y176933
X164095Y176933
X174095Y176933
X184095Y176933
X194095Y176933
X204095Y176933
X214095Y176933
X224095Y176933
X234095Y176933
T06
X81595Y120933
X81595Y130933
T07
X80768Y245630
T08
X49095Y98433
T09
X83068Y220630
X232468Y220630
T10
X69095Y91933
X69095Y161933
T11
X249095Y161933
X249095Y91933
T12
X59095Y77996
X59095Y235476
X255946Y77996
X255946Y235476
M30
