G75*
%MOIN*%
%OFA0B0*%
%FSLAX25Y25*%
%IPPOS*%
%LPD*%
%AMOC8*
5,1,8,0,0,1.08239X$1,22.5*
%
%ADD10C,0.00000*%
%ADD11C,0.00500*%
%ADD12C,0.00700*%
%ADD13C,0.00400*%
%ADD14C,0.00800*%
%ADD15C,0.01000*%
%ADD16C,0.00600*%
%ADD17C,0.00300*%
%ADD18C,0.01900*%
%ADD19R,1.35000X0.17000*%
%ADD20C,0.01575*%
D10*
X0052595Y0077996D02*
X0052597Y0078157D01*
X0052603Y0078317D01*
X0052613Y0078478D01*
X0052627Y0078638D01*
X0052645Y0078798D01*
X0052666Y0078957D01*
X0052692Y0079116D01*
X0052722Y0079274D01*
X0052755Y0079431D01*
X0052793Y0079588D01*
X0052834Y0079743D01*
X0052879Y0079897D01*
X0052928Y0080050D01*
X0052981Y0080202D01*
X0053037Y0080353D01*
X0053098Y0080502D01*
X0053161Y0080650D01*
X0053229Y0080796D01*
X0053300Y0080940D01*
X0053374Y0081082D01*
X0053452Y0081223D01*
X0053534Y0081361D01*
X0053619Y0081498D01*
X0053707Y0081632D01*
X0053799Y0081764D01*
X0053894Y0081894D01*
X0053992Y0082022D01*
X0054093Y0082147D01*
X0054197Y0082269D01*
X0054304Y0082389D01*
X0054414Y0082506D01*
X0054527Y0082621D01*
X0054643Y0082732D01*
X0054762Y0082841D01*
X0054883Y0082946D01*
X0055007Y0083049D01*
X0055133Y0083149D01*
X0055261Y0083245D01*
X0055392Y0083338D01*
X0055526Y0083428D01*
X0055661Y0083515D01*
X0055799Y0083598D01*
X0055938Y0083678D01*
X0056080Y0083754D01*
X0056223Y0083827D01*
X0056368Y0083896D01*
X0056515Y0083962D01*
X0056663Y0084024D01*
X0056813Y0084082D01*
X0056964Y0084137D01*
X0057117Y0084188D01*
X0057271Y0084235D01*
X0057426Y0084278D01*
X0057582Y0084317D01*
X0057738Y0084353D01*
X0057896Y0084384D01*
X0058054Y0084412D01*
X0058213Y0084436D01*
X0058373Y0084456D01*
X0058533Y0084472D01*
X0058693Y0084484D01*
X0058854Y0084492D01*
X0059015Y0084496D01*
X0059175Y0084496D01*
X0059336Y0084492D01*
X0059497Y0084484D01*
X0059657Y0084472D01*
X0059817Y0084456D01*
X0059977Y0084436D01*
X0060136Y0084412D01*
X0060294Y0084384D01*
X0060452Y0084353D01*
X0060608Y0084317D01*
X0060764Y0084278D01*
X0060919Y0084235D01*
X0061073Y0084188D01*
X0061226Y0084137D01*
X0061377Y0084082D01*
X0061527Y0084024D01*
X0061675Y0083962D01*
X0061822Y0083896D01*
X0061967Y0083827D01*
X0062110Y0083754D01*
X0062252Y0083678D01*
X0062391Y0083598D01*
X0062529Y0083515D01*
X0062664Y0083428D01*
X0062798Y0083338D01*
X0062929Y0083245D01*
X0063057Y0083149D01*
X0063183Y0083049D01*
X0063307Y0082946D01*
X0063428Y0082841D01*
X0063547Y0082732D01*
X0063663Y0082621D01*
X0063776Y0082506D01*
X0063886Y0082389D01*
X0063993Y0082269D01*
X0064097Y0082147D01*
X0064198Y0082022D01*
X0064296Y0081894D01*
X0064391Y0081764D01*
X0064483Y0081632D01*
X0064571Y0081498D01*
X0064656Y0081361D01*
X0064738Y0081223D01*
X0064816Y0081082D01*
X0064890Y0080940D01*
X0064961Y0080796D01*
X0065029Y0080650D01*
X0065092Y0080502D01*
X0065153Y0080353D01*
X0065209Y0080202D01*
X0065262Y0080050D01*
X0065311Y0079897D01*
X0065356Y0079743D01*
X0065397Y0079588D01*
X0065435Y0079431D01*
X0065468Y0079274D01*
X0065498Y0079116D01*
X0065524Y0078957D01*
X0065545Y0078798D01*
X0065563Y0078638D01*
X0065577Y0078478D01*
X0065587Y0078317D01*
X0065593Y0078157D01*
X0065595Y0077996D01*
X0065593Y0077835D01*
X0065587Y0077675D01*
X0065577Y0077514D01*
X0065563Y0077354D01*
X0065545Y0077194D01*
X0065524Y0077035D01*
X0065498Y0076876D01*
X0065468Y0076718D01*
X0065435Y0076561D01*
X0065397Y0076404D01*
X0065356Y0076249D01*
X0065311Y0076095D01*
X0065262Y0075942D01*
X0065209Y0075790D01*
X0065153Y0075639D01*
X0065092Y0075490D01*
X0065029Y0075342D01*
X0064961Y0075196D01*
X0064890Y0075052D01*
X0064816Y0074910D01*
X0064738Y0074769D01*
X0064656Y0074631D01*
X0064571Y0074494D01*
X0064483Y0074360D01*
X0064391Y0074228D01*
X0064296Y0074098D01*
X0064198Y0073970D01*
X0064097Y0073845D01*
X0063993Y0073723D01*
X0063886Y0073603D01*
X0063776Y0073486D01*
X0063663Y0073371D01*
X0063547Y0073260D01*
X0063428Y0073151D01*
X0063307Y0073046D01*
X0063183Y0072943D01*
X0063057Y0072843D01*
X0062929Y0072747D01*
X0062798Y0072654D01*
X0062664Y0072564D01*
X0062529Y0072477D01*
X0062391Y0072394D01*
X0062252Y0072314D01*
X0062110Y0072238D01*
X0061967Y0072165D01*
X0061822Y0072096D01*
X0061675Y0072030D01*
X0061527Y0071968D01*
X0061377Y0071910D01*
X0061226Y0071855D01*
X0061073Y0071804D01*
X0060919Y0071757D01*
X0060764Y0071714D01*
X0060608Y0071675D01*
X0060452Y0071639D01*
X0060294Y0071608D01*
X0060136Y0071580D01*
X0059977Y0071556D01*
X0059817Y0071536D01*
X0059657Y0071520D01*
X0059497Y0071508D01*
X0059336Y0071500D01*
X0059175Y0071496D01*
X0059015Y0071496D01*
X0058854Y0071500D01*
X0058693Y0071508D01*
X0058533Y0071520D01*
X0058373Y0071536D01*
X0058213Y0071556D01*
X0058054Y0071580D01*
X0057896Y0071608D01*
X0057738Y0071639D01*
X0057582Y0071675D01*
X0057426Y0071714D01*
X0057271Y0071757D01*
X0057117Y0071804D01*
X0056964Y0071855D01*
X0056813Y0071910D01*
X0056663Y0071968D01*
X0056515Y0072030D01*
X0056368Y0072096D01*
X0056223Y0072165D01*
X0056080Y0072238D01*
X0055938Y0072314D01*
X0055799Y0072394D01*
X0055661Y0072477D01*
X0055526Y0072564D01*
X0055392Y0072654D01*
X0055261Y0072747D01*
X0055133Y0072843D01*
X0055007Y0072943D01*
X0054883Y0073046D01*
X0054762Y0073151D01*
X0054643Y0073260D01*
X0054527Y0073371D01*
X0054414Y0073486D01*
X0054304Y0073603D01*
X0054197Y0073723D01*
X0054093Y0073845D01*
X0053992Y0073970D01*
X0053894Y0074098D01*
X0053799Y0074228D01*
X0053707Y0074360D01*
X0053619Y0074494D01*
X0053534Y0074631D01*
X0053452Y0074769D01*
X0053374Y0074910D01*
X0053300Y0075052D01*
X0053229Y0075196D01*
X0053161Y0075342D01*
X0053098Y0075490D01*
X0053037Y0075639D01*
X0052981Y0075790D01*
X0052928Y0075942D01*
X0052879Y0076095D01*
X0052834Y0076249D01*
X0052793Y0076404D01*
X0052755Y0076561D01*
X0052722Y0076718D01*
X0052692Y0076876D01*
X0052666Y0077035D01*
X0052645Y0077194D01*
X0052627Y0077354D01*
X0052613Y0077514D01*
X0052603Y0077675D01*
X0052597Y0077835D01*
X0052595Y0077996D01*
X0052595Y0235476D02*
X0052597Y0235637D01*
X0052603Y0235797D01*
X0052613Y0235958D01*
X0052627Y0236118D01*
X0052645Y0236278D01*
X0052666Y0236437D01*
X0052692Y0236596D01*
X0052722Y0236754D01*
X0052755Y0236911D01*
X0052793Y0237068D01*
X0052834Y0237223D01*
X0052879Y0237377D01*
X0052928Y0237530D01*
X0052981Y0237682D01*
X0053037Y0237833D01*
X0053098Y0237982D01*
X0053161Y0238130D01*
X0053229Y0238276D01*
X0053300Y0238420D01*
X0053374Y0238562D01*
X0053452Y0238703D01*
X0053534Y0238841D01*
X0053619Y0238978D01*
X0053707Y0239112D01*
X0053799Y0239244D01*
X0053894Y0239374D01*
X0053992Y0239502D01*
X0054093Y0239627D01*
X0054197Y0239749D01*
X0054304Y0239869D01*
X0054414Y0239986D01*
X0054527Y0240101D01*
X0054643Y0240212D01*
X0054762Y0240321D01*
X0054883Y0240426D01*
X0055007Y0240529D01*
X0055133Y0240629D01*
X0055261Y0240725D01*
X0055392Y0240818D01*
X0055526Y0240908D01*
X0055661Y0240995D01*
X0055799Y0241078D01*
X0055938Y0241158D01*
X0056080Y0241234D01*
X0056223Y0241307D01*
X0056368Y0241376D01*
X0056515Y0241442D01*
X0056663Y0241504D01*
X0056813Y0241562D01*
X0056964Y0241617D01*
X0057117Y0241668D01*
X0057271Y0241715D01*
X0057426Y0241758D01*
X0057582Y0241797D01*
X0057738Y0241833D01*
X0057896Y0241864D01*
X0058054Y0241892D01*
X0058213Y0241916D01*
X0058373Y0241936D01*
X0058533Y0241952D01*
X0058693Y0241964D01*
X0058854Y0241972D01*
X0059015Y0241976D01*
X0059175Y0241976D01*
X0059336Y0241972D01*
X0059497Y0241964D01*
X0059657Y0241952D01*
X0059817Y0241936D01*
X0059977Y0241916D01*
X0060136Y0241892D01*
X0060294Y0241864D01*
X0060452Y0241833D01*
X0060608Y0241797D01*
X0060764Y0241758D01*
X0060919Y0241715D01*
X0061073Y0241668D01*
X0061226Y0241617D01*
X0061377Y0241562D01*
X0061527Y0241504D01*
X0061675Y0241442D01*
X0061822Y0241376D01*
X0061967Y0241307D01*
X0062110Y0241234D01*
X0062252Y0241158D01*
X0062391Y0241078D01*
X0062529Y0240995D01*
X0062664Y0240908D01*
X0062798Y0240818D01*
X0062929Y0240725D01*
X0063057Y0240629D01*
X0063183Y0240529D01*
X0063307Y0240426D01*
X0063428Y0240321D01*
X0063547Y0240212D01*
X0063663Y0240101D01*
X0063776Y0239986D01*
X0063886Y0239869D01*
X0063993Y0239749D01*
X0064097Y0239627D01*
X0064198Y0239502D01*
X0064296Y0239374D01*
X0064391Y0239244D01*
X0064483Y0239112D01*
X0064571Y0238978D01*
X0064656Y0238841D01*
X0064738Y0238703D01*
X0064816Y0238562D01*
X0064890Y0238420D01*
X0064961Y0238276D01*
X0065029Y0238130D01*
X0065092Y0237982D01*
X0065153Y0237833D01*
X0065209Y0237682D01*
X0065262Y0237530D01*
X0065311Y0237377D01*
X0065356Y0237223D01*
X0065397Y0237068D01*
X0065435Y0236911D01*
X0065468Y0236754D01*
X0065498Y0236596D01*
X0065524Y0236437D01*
X0065545Y0236278D01*
X0065563Y0236118D01*
X0065577Y0235958D01*
X0065587Y0235797D01*
X0065593Y0235637D01*
X0065595Y0235476D01*
X0065593Y0235315D01*
X0065587Y0235155D01*
X0065577Y0234994D01*
X0065563Y0234834D01*
X0065545Y0234674D01*
X0065524Y0234515D01*
X0065498Y0234356D01*
X0065468Y0234198D01*
X0065435Y0234041D01*
X0065397Y0233884D01*
X0065356Y0233729D01*
X0065311Y0233575D01*
X0065262Y0233422D01*
X0065209Y0233270D01*
X0065153Y0233119D01*
X0065092Y0232970D01*
X0065029Y0232822D01*
X0064961Y0232676D01*
X0064890Y0232532D01*
X0064816Y0232390D01*
X0064738Y0232249D01*
X0064656Y0232111D01*
X0064571Y0231974D01*
X0064483Y0231840D01*
X0064391Y0231708D01*
X0064296Y0231578D01*
X0064198Y0231450D01*
X0064097Y0231325D01*
X0063993Y0231203D01*
X0063886Y0231083D01*
X0063776Y0230966D01*
X0063663Y0230851D01*
X0063547Y0230740D01*
X0063428Y0230631D01*
X0063307Y0230526D01*
X0063183Y0230423D01*
X0063057Y0230323D01*
X0062929Y0230227D01*
X0062798Y0230134D01*
X0062664Y0230044D01*
X0062529Y0229957D01*
X0062391Y0229874D01*
X0062252Y0229794D01*
X0062110Y0229718D01*
X0061967Y0229645D01*
X0061822Y0229576D01*
X0061675Y0229510D01*
X0061527Y0229448D01*
X0061377Y0229390D01*
X0061226Y0229335D01*
X0061073Y0229284D01*
X0060919Y0229237D01*
X0060764Y0229194D01*
X0060608Y0229155D01*
X0060452Y0229119D01*
X0060294Y0229088D01*
X0060136Y0229060D01*
X0059977Y0229036D01*
X0059817Y0229016D01*
X0059657Y0229000D01*
X0059497Y0228988D01*
X0059336Y0228980D01*
X0059175Y0228976D01*
X0059015Y0228976D01*
X0058854Y0228980D01*
X0058693Y0228988D01*
X0058533Y0229000D01*
X0058373Y0229016D01*
X0058213Y0229036D01*
X0058054Y0229060D01*
X0057896Y0229088D01*
X0057738Y0229119D01*
X0057582Y0229155D01*
X0057426Y0229194D01*
X0057271Y0229237D01*
X0057117Y0229284D01*
X0056964Y0229335D01*
X0056813Y0229390D01*
X0056663Y0229448D01*
X0056515Y0229510D01*
X0056368Y0229576D01*
X0056223Y0229645D01*
X0056080Y0229718D01*
X0055938Y0229794D01*
X0055799Y0229874D01*
X0055661Y0229957D01*
X0055526Y0230044D01*
X0055392Y0230134D01*
X0055261Y0230227D01*
X0055133Y0230323D01*
X0055007Y0230423D01*
X0054883Y0230526D01*
X0054762Y0230631D01*
X0054643Y0230740D01*
X0054527Y0230851D01*
X0054414Y0230966D01*
X0054304Y0231083D01*
X0054197Y0231203D01*
X0054093Y0231325D01*
X0053992Y0231450D01*
X0053894Y0231578D01*
X0053799Y0231708D01*
X0053707Y0231840D01*
X0053619Y0231974D01*
X0053534Y0232111D01*
X0053452Y0232249D01*
X0053374Y0232390D01*
X0053300Y0232532D01*
X0053229Y0232676D01*
X0053161Y0232822D01*
X0053098Y0232970D01*
X0053037Y0233119D01*
X0052981Y0233270D01*
X0052928Y0233422D01*
X0052879Y0233575D01*
X0052834Y0233729D01*
X0052793Y0233884D01*
X0052755Y0234041D01*
X0052722Y0234198D01*
X0052692Y0234356D01*
X0052666Y0234515D01*
X0052645Y0234674D01*
X0052627Y0234834D01*
X0052613Y0234994D01*
X0052603Y0235155D01*
X0052597Y0235315D01*
X0052595Y0235476D01*
X0078268Y0245630D02*
X0078270Y0245729D01*
X0078276Y0245829D01*
X0078286Y0245928D01*
X0078300Y0246026D01*
X0078317Y0246124D01*
X0078339Y0246221D01*
X0078364Y0246317D01*
X0078393Y0246412D01*
X0078426Y0246506D01*
X0078463Y0246598D01*
X0078503Y0246689D01*
X0078547Y0246778D01*
X0078595Y0246866D01*
X0078646Y0246951D01*
X0078700Y0247034D01*
X0078757Y0247116D01*
X0078818Y0247194D01*
X0078882Y0247271D01*
X0078948Y0247344D01*
X0079018Y0247415D01*
X0079090Y0247483D01*
X0079165Y0247549D01*
X0079243Y0247611D01*
X0079323Y0247670D01*
X0079405Y0247726D01*
X0079489Y0247778D01*
X0079576Y0247827D01*
X0079664Y0247873D01*
X0079754Y0247915D01*
X0079846Y0247954D01*
X0079939Y0247989D01*
X0080033Y0248020D01*
X0080129Y0248047D01*
X0080226Y0248070D01*
X0080323Y0248090D01*
X0080421Y0248106D01*
X0080520Y0248118D01*
X0080619Y0248126D01*
X0080718Y0248130D01*
X0080818Y0248130D01*
X0080917Y0248126D01*
X0081016Y0248118D01*
X0081115Y0248106D01*
X0081213Y0248090D01*
X0081310Y0248070D01*
X0081407Y0248047D01*
X0081503Y0248020D01*
X0081597Y0247989D01*
X0081690Y0247954D01*
X0081782Y0247915D01*
X0081872Y0247873D01*
X0081960Y0247827D01*
X0082047Y0247778D01*
X0082131Y0247726D01*
X0082213Y0247670D01*
X0082293Y0247611D01*
X0082371Y0247549D01*
X0082446Y0247483D01*
X0082518Y0247415D01*
X0082588Y0247344D01*
X0082654Y0247271D01*
X0082718Y0247194D01*
X0082779Y0247116D01*
X0082836Y0247034D01*
X0082890Y0246951D01*
X0082941Y0246866D01*
X0082989Y0246778D01*
X0083033Y0246689D01*
X0083073Y0246598D01*
X0083110Y0246506D01*
X0083143Y0246412D01*
X0083172Y0246317D01*
X0083197Y0246221D01*
X0083219Y0246124D01*
X0083236Y0246026D01*
X0083250Y0245928D01*
X0083260Y0245829D01*
X0083266Y0245729D01*
X0083268Y0245630D01*
X0083266Y0245531D01*
X0083260Y0245431D01*
X0083250Y0245332D01*
X0083236Y0245234D01*
X0083219Y0245136D01*
X0083197Y0245039D01*
X0083172Y0244943D01*
X0083143Y0244848D01*
X0083110Y0244754D01*
X0083073Y0244662D01*
X0083033Y0244571D01*
X0082989Y0244482D01*
X0082941Y0244394D01*
X0082890Y0244309D01*
X0082836Y0244226D01*
X0082779Y0244144D01*
X0082718Y0244066D01*
X0082654Y0243989D01*
X0082588Y0243916D01*
X0082518Y0243845D01*
X0082446Y0243777D01*
X0082371Y0243711D01*
X0082293Y0243649D01*
X0082213Y0243590D01*
X0082131Y0243534D01*
X0082047Y0243482D01*
X0081960Y0243433D01*
X0081872Y0243387D01*
X0081782Y0243345D01*
X0081690Y0243306D01*
X0081597Y0243271D01*
X0081503Y0243240D01*
X0081407Y0243213D01*
X0081310Y0243190D01*
X0081213Y0243170D01*
X0081115Y0243154D01*
X0081016Y0243142D01*
X0080917Y0243134D01*
X0080818Y0243130D01*
X0080718Y0243130D01*
X0080619Y0243134D01*
X0080520Y0243142D01*
X0080421Y0243154D01*
X0080323Y0243170D01*
X0080226Y0243190D01*
X0080129Y0243213D01*
X0080033Y0243240D01*
X0079939Y0243271D01*
X0079846Y0243306D01*
X0079754Y0243345D01*
X0079664Y0243387D01*
X0079576Y0243433D01*
X0079489Y0243482D01*
X0079405Y0243534D01*
X0079323Y0243590D01*
X0079243Y0243649D01*
X0079165Y0243711D01*
X0079090Y0243777D01*
X0079018Y0243845D01*
X0078948Y0243916D01*
X0078882Y0243989D01*
X0078818Y0244066D01*
X0078757Y0244144D01*
X0078700Y0244226D01*
X0078646Y0244309D01*
X0078595Y0244394D01*
X0078547Y0244482D01*
X0078503Y0244571D01*
X0078463Y0244662D01*
X0078426Y0244754D01*
X0078393Y0244848D01*
X0078364Y0244943D01*
X0078339Y0245039D01*
X0078317Y0245136D01*
X0078300Y0245234D01*
X0078286Y0245332D01*
X0078276Y0245431D01*
X0078270Y0245531D01*
X0078268Y0245630D01*
X0244095Y0161933D02*
X0244097Y0162074D01*
X0244103Y0162215D01*
X0244113Y0162355D01*
X0244127Y0162495D01*
X0244145Y0162635D01*
X0244166Y0162774D01*
X0244192Y0162913D01*
X0244221Y0163051D01*
X0244255Y0163187D01*
X0244292Y0163323D01*
X0244333Y0163458D01*
X0244378Y0163592D01*
X0244427Y0163724D01*
X0244479Y0163855D01*
X0244535Y0163984D01*
X0244595Y0164111D01*
X0244658Y0164237D01*
X0244724Y0164361D01*
X0244795Y0164484D01*
X0244868Y0164604D01*
X0244945Y0164722D01*
X0245025Y0164838D01*
X0245109Y0164951D01*
X0245195Y0165062D01*
X0245285Y0165171D01*
X0245378Y0165277D01*
X0245473Y0165380D01*
X0245572Y0165481D01*
X0245673Y0165579D01*
X0245777Y0165674D01*
X0245884Y0165766D01*
X0245993Y0165855D01*
X0246105Y0165940D01*
X0246219Y0166023D01*
X0246335Y0166103D01*
X0246454Y0166179D01*
X0246575Y0166251D01*
X0246697Y0166321D01*
X0246822Y0166386D01*
X0246948Y0166449D01*
X0247076Y0166507D01*
X0247206Y0166562D01*
X0247337Y0166614D01*
X0247470Y0166661D01*
X0247604Y0166705D01*
X0247739Y0166746D01*
X0247875Y0166782D01*
X0248012Y0166814D01*
X0248150Y0166843D01*
X0248288Y0166868D01*
X0248428Y0166888D01*
X0248568Y0166905D01*
X0248708Y0166918D01*
X0248849Y0166927D01*
X0248989Y0166932D01*
X0249130Y0166933D01*
X0249271Y0166930D01*
X0249412Y0166923D01*
X0249552Y0166912D01*
X0249692Y0166897D01*
X0249832Y0166878D01*
X0249971Y0166856D01*
X0250109Y0166829D01*
X0250247Y0166799D01*
X0250383Y0166764D01*
X0250519Y0166726D01*
X0250653Y0166684D01*
X0250787Y0166638D01*
X0250919Y0166589D01*
X0251049Y0166535D01*
X0251178Y0166478D01*
X0251305Y0166418D01*
X0251431Y0166354D01*
X0251554Y0166286D01*
X0251676Y0166215D01*
X0251796Y0166141D01*
X0251913Y0166063D01*
X0252028Y0165982D01*
X0252141Y0165898D01*
X0252252Y0165811D01*
X0252360Y0165720D01*
X0252465Y0165627D01*
X0252568Y0165530D01*
X0252668Y0165431D01*
X0252765Y0165329D01*
X0252859Y0165224D01*
X0252950Y0165117D01*
X0253038Y0165007D01*
X0253123Y0164895D01*
X0253205Y0164780D01*
X0253284Y0164663D01*
X0253359Y0164544D01*
X0253431Y0164423D01*
X0253499Y0164300D01*
X0253564Y0164175D01*
X0253626Y0164048D01*
X0253683Y0163919D01*
X0253738Y0163789D01*
X0253788Y0163658D01*
X0253835Y0163525D01*
X0253878Y0163391D01*
X0253917Y0163255D01*
X0253952Y0163119D01*
X0253984Y0162982D01*
X0254011Y0162844D01*
X0254035Y0162705D01*
X0254055Y0162565D01*
X0254071Y0162425D01*
X0254083Y0162285D01*
X0254091Y0162144D01*
X0254095Y0162003D01*
X0254095Y0161863D01*
X0254091Y0161722D01*
X0254083Y0161581D01*
X0254071Y0161441D01*
X0254055Y0161301D01*
X0254035Y0161161D01*
X0254011Y0161022D01*
X0253984Y0160884D01*
X0253952Y0160747D01*
X0253917Y0160611D01*
X0253878Y0160475D01*
X0253835Y0160341D01*
X0253788Y0160208D01*
X0253738Y0160077D01*
X0253683Y0159947D01*
X0253626Y0159818D01*
X0253564Y0159691D01*
X0253499Y0159566D01*
X0253431Y0159443D01*
X0253359Y0159322D01*
X0253284Y0159203D01*
X0253205Y0159086D01*
X0253123Y0158971D01*
X0253038Y0158859D01*
X0252950Y0158749D01*
X0252859Y0158642D01*
X0252765Y0158537D01*
X0252668Y0158435D01*
X0252568Y0158336D01*
X0252465Y0158239D01*
X0252360Y0158146D01*
X0252252Y0158055D01*
X0252141Y0157968D01*
X0252028Y0157884D01*
X0251913Y0157803D01*
X0251796Y0157725D01*
X0251676Y0157651D01*
X0251554Y0157580D01*
X0251431Y0157512D01*
X0251305Y0157448D01*
X0251178Y0157388D01*
X0251049Y0157331D01*
X0250919Y0157277D01*
X0250787Y0157228D01*
X0250653Y0157182D01*
X0250519Y0157140D01*
X0250383Y0157102D01*
X0250247Y0157067D01*
X0250109Y0157037D01*
X0249971Y0157010D01*
X0249832Y0156988D01*
X0249692Y0156969D01*
X0249552Y0156954D01*
X0249412Y0156943D01*
X0249271Y0156936D01*
X0249130Y0156933D01*
X0248989Y0156934D01*
X0248849Y0156939D01*
X0248708Y0156948D01*
X0248568Y0156961D01*
X0248428Y0156978D01*
X0248288Y0156998D01*
X0248150Y0157023D01*
X0248012Y0157052D01*
X0247875Y0157084D01*
X0247739Y0157120D01*
X0247604Y0157161D01*
X0247470Y0157205D01*
X0247337Y0157252D01*
X0247206Y0157304D01*
X0247076Y0157359D01*
X0246948Y0157417D01*
X0246822Y0157480D01*
X0246697Y0157545D01*
X0246575Y0157615D01*
X0246454Y0157687D01*
X0246335Y0157763D01*
X0246219Y0157843D01*
X0246105Y0157926D01*
X0245993Y0158011D01*
X0245884Y0158100D01*
X0245777Y0158192D01*
X0245673Y0158287D01*
X0245572Y0158385D01*
X0245473Y0158486D01*
X0245378Y0158589D01*
X0245285Y0158695D01*
X0245195Y0158804D01*
X0245109Y0158915D01*
X0245025Y0159028D01*
X0244945Y0159144D01*
X0244868Y0159262D01*
X0244795Y0159382D01*
X0244724Y0159505D01*
X0244658Y0159629D01*
X0244595Y0159755D01*
X0244535Y0159882D01*
X0244479Y0160011D01*
X0244427Y0160142D01*
X0244378Y0160274D01*
X0244333Y0160408D01*
X0244292Y0160543D01*
X0244255Y0160679D01*
X0244221Y0160815D01*
X0244192Y0160953D01*
X0244166Y0161092D01*
X0244145Y0161231D01*
X0244127Y0161371D01*
X0244113Y0161511D01*
X0244103Y0161651D01*
X0244097Y0161792D01*
X0244095Y0161933D01*
X0244095Y0091933D02*
X0244097Y0092074D01*
X0244103Y0092215D01*
X0244113Y0092355D01*
X0244127Y0092495D01*
X0244145Y0092635D01*
X0244166Y0092774D01*
X0244192Y0092913D01*
X0244221Y0093051D01*
X0244255Y0093187D01*
X0244292Y0093323D01*
X0244333Y0093458D01*
X0244378Y0093592D01*
X0244427Y0093724D01*
X0244479Y0093855D01*
X0244535Y0093984D01*
X0244595Y0094111D01*
X0244658Y0094237D01*
X0244724Y0094361D01*
X0244795Y0094484D01*
X0244868Y0094604D01*
X0244945Y0094722D01*
X0245025Y0094838D01*
X0245109Y0094951D01*
X0245195Y0095062D01*
X0245285Y0095171D01*
X0245378Y0095277D01*
X0245473Y0095380D01*
X0245572Y0095481D01*
X0245673Y0095579D01*
X0245777Y0095674D01*
X0245884Y0095766D01*
X0245993Y0095855D01*
X0246105Y0095940D01*
X0246219Y0096023D01*
X0246335Y0096103D01*
X0246454Y0096179D01*
X0246575Y0096251D01*
X0246697Y0096321D01*
X0246822Y0096386D01*
X0246948Y0096449D01*
X0247076Y0096507D01*
X0247206Y0096562D01*
X0247337Y0096614D01*
X0247470Y0096661D01*
X0247604Y0096705D01*
X0247739Y0096746D01*
X0247875Y0096782D01*
X0248012Y0096814D01*
X0248150Y0096843D01*
X0248288Y0096868D01*
X0248428Y0096888D01*
X0248568Y0096905D01*
X0248708Y0096918D01*
X0248849Y0096927D01*
X0248989Y0096932D01*
X0249130Y0096933D01*
X0249271Y0096930D01*
X0249412Y0096923D01*
X0249552Y0096912D01*
X0249692Y0096897D01*
X0249832Y0096878D01*
X0249971Y0096856D01*
X0250109Y0096829D01*
X0250247Y0096799D01*
X0250383Y0096764D01*
X0250519Y0096726D01*
X0250653Y0096684D01*
X0250787Y0096638D01*
X0250919Y0096589D01*
X0251049Y0096535D01*
X0251178Y0096478D01*
X0251305Y0096418D01*
X0251431Y0096354D01*
X0251554Y0096286D01*
X0251676Y0096215D01*
X0251796Y0096141D01*
X0251913Y0096063D01*
X0252028Y0095982D01*
X0252141Y0095898D01*
X0252252Y0095811D01*
X0252360Y0095720D01*
X0252465Y0095627D01*
X0252568Y0095530D01*
X0252668Y0095431D01*
X0252765Y0095329D01*
X0252859Y0095224D01*
X0252950Y0095117D01*
X0253038Y0095007D01*
X0253123Y0094895D01*
X0253205Y0094780D01*
X0253284Y0094663D01*
X0253359Y0094544D01*
X0253431Y0094423D01*
X0253499Y0094300D01*
X0253564Y0094175D01*
X0253626Y0094048D01*
X0253683Y0093919D01*
X0253738Y0093789D01*
X0253788Y0093658D01*
X0253835Y0093525D01*
X0253878Y0093391D01*
X0253917Y0093255D01*
X0253952Y0093119D01*
X0253984Y0092982D01*
X0254011Y0092844D01*
X0254035Y0092705D01*
X0254055Y0092565D01*
X0254071Y0092425D01*
X0254083Y0092285D01*
X0254091Y0092144D01*
X0254095Y0092003D01*
X0254095Y0091863D01*
X0254091Y0091722D01*
X0254083Y0091581D01*
X0254071Y0091441D01*
X0254055Y0091301D01*
X0254035Y0091161D01*
X0254011Y0091022D01*
X0253984Y0090884D01*
X0253952Y0090747D01*
X0253917Y0090611D01*
X0253878Y0090475D01*
X0253835Y0090341D01*
X0253788Y0090208D01*
X0253738Y0090077D01*
X0253683Y0089947D01*
X0253626Y0089818D01*
X0253564Y0089691D01*
X0253499Y0089566D01*
X0253431Y0089443D01*
X0253359Y0089322D01*
X0253284Y0089203D01*
X0253205Y0089086D01*
X0253123Y0088971D01*
X0253038Y0088859D01*
X0252950Y0088749D01*
X0252859Y0088642D01*
X0252765Y0088537D01*
X0252668Y0088435D01*
X0252568Y0088336D01*
X0252465Y0088239D01*
X0252360Y0088146D01*
X0252252Y0088055D01*
X0252141Y0087968D01*
X0252028Y0087884D01*
X0251913Y0087803D01*
X0251796Y0087725D01*
X0251676Y0087651D01*
X0251554Y0087580D01*
X0251431Y0087512D01*
X0251305Y0087448D01*
X0251178Y0087388D01*
X0251049Y0087331D01*
X0250919Y0087277D01*
X0250787Y0087228D01*
X0250653Y0087182D01*
X0250519Y0087140D01*
X0250383Y0087102D01*
X0250247Y0087067D01*
X0250109Y0087037D01*
X0249971Y0087010D01*
X0249832Y0086988D01*
X0249692Y0086969D01*
X0249552Y0086954D01*
X0249412Y0086943D01*
X0249271Y0086936D01*
X0249130Y0086933D01*
X0248989Y0086934D01*
X0248849Y0086939D01*
X0248708Y0086948D01*
X0248568Y0086961D01*
X0248428Y0086978D01*
X0248288Y0086998D01*
X0248150Y0087023D01*
X0248012Y0087052D01*
X0247875Y0087084D01*
X0247739Y0087120D01*
X0247604Y0087161D01*
X0247470Y0087205D01*
X0247337Y0087252D01*
X0247206Y0087304D01*
X0247076Y0087359D01*
X0246948Y0087417D01*
X0246822Y0087480D01*
X0246697Y0087545D01*
X0246575Y0087615D01*
X0246454Y0087687D01*
X0246335Y0087763D01*
X0246219Y0087843D01*
X0246105Y0087926D01*
X0245993Y0088011D01*
X0245884Y0088100D01*
X0245777Y0088192D01*
X0245673Y0088287D01*
X0245572Y0088385D01*
X0245473Y0088486D01*
X0245378Y0088589D01*
X0245285Y0088695D01*
X0245195Y0088804D01*
X0245109Y0088915D01*
X0245025Y0089028D01*
X0244945Y0089144D01*
X0244868Y0089262D01*
X0244795Y0089382D01*
X0244724Y0089505D01*
X0244658Y0089629D01*
X0244595Y0089755D01*
X0244535Y0089882D01*
X0244479Y0090011D01*
X0244427Y0090142D01*
X0244378Y0090274D01*
X0244333Y0090408D01*
X0244292Y0090543D01*
X0244255Y0090679D01*
X0244221Y0090815D01*
X0244192Y0090953D01*
X0244166Y0091092D01*
X0244145Y0091231D01*
X0244127Y0091371D01*
X0244113Y0091511D01*
X0244103Y0091651D01*
X0244097Y0091792D01*
X0244095Y0091933D01*
X0249446Y0077996D02*
X0249448Y0078157D01*
X0249454Y0078317D01*
X0249464Y0078478D01*
X0249478Y0078638D01*
X0249496Y0078798D01*
X0249517Y0078957D01*
X0249543Y0079116D01*
X0249573Y0079274D01*
X0249606Y0079431D01*
X0249644Y0079588D01*
X0249685Y0079743D01*
X0249730Y0079897D01*
X0249779Y0080050D01*
X0249832Y0080202D01*
X0249888Y0080353D01*
X0249949Y0080502D01*
X0250012Y0080650D01*
X0250080Y0080796D01*
X0250151Y0080940D01*
X0250225Y0081082D01*
X0250303Y0081223D01*
X0250385Y0081361D01*
X0250470Y0081498D01*
X0250558Y0081632D01*
X0250650Y0081764D01*
X0250745Y0081894D01*
X0250843Y0082022D01*
X0250944Y0082147D01*
X0251048Y0082269D01*
X0251155Y0082389D01*
X0251265Y0082506D01*
X0251378Y0082621D01*
X0251494Y0082732D01*
X0251613Y0082841D01*
X0251734Y0082946D01*
X0251858Y0083049D01*
X0251984Y0083149D01*
X0252112Y0083245D01*
X0252243Y0083338D01*
X0252377Y0083428D01*
X0252512Y0083515D01*
X0252650Y0083598D01*
X0252789Y0083678D01*
X0252931Y0083754D01*
X0253074Y0083827D01*
X0253219Y0083896D01*
X0253366Y0083962D01*
X0253514Y0084024D01*
X0253664Y0084082D01*
X0253815Y0084137D01*
X0253968Y0084188D01*
X0254122Y0084235D01*
X0254277Y0084278D01*
X0254433Y0084317D01*
X0254589Y0084353D01*
X0254747Y0084384D01*
X0254905Y0084412D01*
X0255064Y0084436D01*
X0255224Y0084456D01*
X0255384Y0084472D01*
X0255544Y0084484D01*
X0255705Y0084492D01*
X0255866Y0084496D01*
X0256026Y0084496D01*
X0256187Y0084492D01*
X0256348Y0084484D01*
X0256508Y0084472D01*
X0256668Y0084456D01*
X0256828Y0084436D01*
X0256987Y0084412D01*
X0257145Y0084384D01*
X0257303Y0084353D01*
X0257459Y0084317D01*
X0257615Y0084278D01*
X0257770Y0084235D01*
X0257924Y0084188D01*
X0258077Y0084137D01*
X0258228Y0084082D01*
X0258378Y0084024D01*
X0258526Y0083962D01*
X0258673Y0083896D01*
X0258818Y0083827D01*
X0258961Y0083754D01*
X0259103Y0083678D01*
X0259242Y0083598D01*
X0259380Y0083515D01*
X0259515Y0083428D01*
X0259649Y0083338D01*
X0259780Y0083245D01*
X0259908Y0083149D01*
X0260034Y0083049D01*
X0260158Y0082946D01*
X0260279Y0082841D01*
X0260398Y0082732D01*
X0260514Y0082621D01*
X0260627Y0082506D01*
X0260737Y0082389D01*
X0260844Y0082269D01*
X0260948Y0082147D01*
X0261049Y0082022D01*
X0261147Y0081894D01*
X0261242Y0081764D01*
X0261334Y0081632D01*
X0261422Y0081498D01*
X0261507Y0081361D01*
X0261589Y0081223D01*
X0261667Y0081082D01*
X0261741Y0080940D01*
X0261812Y0080796D01*
X0261880Y0080650D01*
X0261943Y0080502D01*
X0262004Y0080353D01*
X0262060Y0080202D01*
X0262113Y0080050D01*
X0262162Y0079897D01*
X0262207Y0079743D01*
X0262248Y0079588D01*
X0262286Y0079431D01*
X0262319Y0079274D01*
X0262349Y0079116D01*
X0262375Y0078957D01*
X0262396Y0078798D01*
X0262414Y0078638D01*
X0262428Y0078478D01*
X0262438Y0078317D01*
X0262444Y0078157D01*
X0262446Y0077996D01*
X0262444Y0077835D01*
X0262438Y0077675D01*
X0262428Y0077514D01*
X0262414Y0077354D01*
X0262396Y0077194D01*
X0262375Y0077035D01*
X0262349Y0076876D01*
X0262319Y0076718D01*
X0262286Y0076561D01*
X0262248Y0076404D01*
X0262207Y0076249D01*
X0262162Y0076095D01*
X0262113Y0075942D01*
X0262060Y0075790D01*
X0262004Y0075639D01*
X0261943Y0075490D01*
X0261880Y0075342D01*
X0261812Y0075196D01*
X0261741Y0075052D01*
X0261667Y0074910D01*
X0261589Y0074769D01*
X0261507Y0074631D01*
X0261422Y0074494D01*
X0261334Y0074360D01*
X0261242Y0074228D01*
X0261147Y0074098D01*
X0261049Y0073970D01*
X0260948Y0073845D01*
X0260844Y0073723D01*
X0260737Y0073603D01*
X0260627Y0073486D01*
X0260514Y0073371D01*
X0260398Y0073260D01*
X0260279Y0073151D01*
X0260158Y0073046D01*
X0260034Y0072943D01*
X0259908Y0072843D01*
X0259780Y0072747D01*
X0259649Y0072654D01*
X0259515Y0072564D01*
X0259380Y0072477D01*
X0259242Y0072394D01*
X0259103Y0072314D01*
X0258961Y0072238D01*
X0258818Y0072165D01*
X0258673Y0072096D01*
X0258526Y0072030D01*
X0258378Y0071968D01*
X0258228Y0071910D01*
X0258077Y0071855D01*
X0257924Y0071804D01*
X0257770Y0071757D01*
X0257615Y0071714D01*
X0257459Y0071675D01*
X0257303Y0071639D01*
X0257145Y0071608D01*
X0256987Y0071580D01*
X0256828Y0071556D01*
X0256668Y0071536D01*
X0256508Y0071520D01*
X0256348Y0071508D01*
X0256187Y0071500D01*
X0256026Y0071496D01*
X0255866Y0071496D01*
X0255705Y0071500D01*
X0255544Y0071508D01*
X0255384Y0071520D01*
X0255224Y0071536D01*
X0255064Y0071556D01*
X0254905Y0071580D01*
X0254747Y0071608D01*
X0254589Y0071639D01*
X0254433Y0071675D01*
X0254277Y0071714D01*
X0254122Y0071757D01*
X0253968Y0071804D01*
X0253815Y0071855D01*
X0253664Y0071910D01*
X0253514Y0071968D01*
X0253366Y0072030D01*
X0253219Y0072096D01*
X0253074Y0072165D01*
X0252931Y0072238D01*
X0252789Y0072314D01*
X0252650Y0072394D01*
X0252512Y0072477D01*
X0252377Y0072564D01*
X0252243Y0072654D01*
X0252112Y0072747D01*
X0251984Y0072843D01*
X0251858Y0072943D01*
X0251734Y0073046D01*
X0251613Y0073151D01*
X0251494Y0073260D01*
X0251378Y0073371D01*
X0251265Y0073486D01*
X0251155Y0073603D01*
X0251048Y0073723D01*
X0250944Y0073845D01*
X0250843Y0073970D01*
X0250745Y0074098D01*
X0250650Y0074228D01*
X0250558Y0074360D01*
X0250470Y0074494D01*
X0250385Y0074631D01*
X0250303Y0074769D01*
X0250225Y0074910D01*
X0250151Y0075052D01*
X0250080Y0075196D01*
X0250012Y0075342D01*
X0249949Y0075490D01*
X0249888Y0075639D01*
X0249832Y0075790D01*
X0249779Y0075942D01*
X0249730Y0076095D01*
X0249685Y0076249D01*
X0249644Y0076404D01*
X0249606Y0076561D01*
X0249573Y0076718D01*
X0249543Y0076876D01*
X0249517Y0077035D01*
X0249496Y0077194D01*
X0249478Y0077354D01*
X0249464Y0077514D01*
X0249454Y0077675D01*
X0249448Y0077835D01*
X0249446Y0077996D01*
X0249446Y0235476D02*
X0249448Y0235637D01*
X0249454Y0235797D01*
X0249464Y0235958D01*
X0249478Y0236118D01*
X0249496Y0236278D01*
X0249517Y0236437D01*
X0249543Y0236596D01*
X0249573Y0236754D01*
X0249606Y0236911D01*
X0249644Y0237068D01*
X0249685Y0237223D01*
X0249730Y0237377D01*
X0249779Y0237530D01*
X0249832Y0237682D01*
X0249888Y0237833D01*
X0249949Y0237982D01*
X0250012Y0238130D01*
X0250080Y0238276D01*
X0250151Y0238420D01*
X0250225Y0238562D01*
X0250303Y0238703D01*
X0250385Y0238841D01*
X0250470Y0238978D01*
X0250558Y0239112D01*
X0250650Y0239244D01*
X0250745Y0239374D01*
X0250843Y0239502D01*
X0250944Y0239627D01*
X0251048Y0239749D01*
X0251155Y0239869D01*
X0251265Y0239986D01*
X0251378Y0240101D01*
X0251494Y0240212D01*
X0251613Y0240321D01*
X0251734Y0240426D01*
X0251858Y0240529D01*
X0251984Y0240629D01*
X0252112Y0240725D01*
X0252243Y0240818D01*
X0252377Y0240908D01*
X0252512Y0240995D01*
X0252650Y0241078D01*
X0252789Y0241158D01*
X0252931Y0241234D01*
X0253074Y0241307D01*
X0253219Y0241376D01*
X0253366Y0241442D01*
X0253514Y0241504D01*
X0253664Y0241562D01*
X0253815Y0241617D01*
X0253968Y0241668D01*
X0254122Y0241715D01*
X0254277Y0241758D01*
X0254433Y0241797D01*
X0254589Y0241833D01*
X0254747Y0241864D01*
X0254905Y0241892D01*
X0255064Y0241916D01*
X0255224Y0241936D01*
X0255384Y0241952D01*
X0255544Y0241964D01*
X0255705Y0241972D01*
X0255866Y0241976D01*
X0256026Y0241976D01*
X0256187Y0241972D01*
X0256348Y0241964D01*
X0256508Y0241952D01*
X0256668Y0241936D01*
X0256828Y0241916D01*
X0256987Y0241892D01*
X0257145Y0241864D01*
X0257303Y0241833D01*
X0257459Y0241797D01*
X0257615Y0241758D01*
X0257770Y0241715D01*
X0257924Y0241668D01*
X0258077Y0241617D01*
X0258228Y0241562D01*
X0258378Y0241504D01*
X0258526Y0241442D01*
X0258673Y0241376D01*
X0258818Y0241307D01*
X0258961Y0241234D01*
X0259103Y0241158D01*
X0259242Y0241078D01*
X0259380Y0240995D01*
X0259515Y0240908D01*
X0259649Y0240818D01*
X0259780Y0240725D01*
X0259908Y0240629D01*
X0260034Y0240529D01*
X0260158Y0240426D01*
X0260279Y0240321D01*
X0260398Y0240212D01*
X0260514Y0240101D01*
X0260627Y0239986D01*
X0260737Y0239869D01*
X0260844Y0239749D01*
X0260948Y0239627D01*
X0261049Y0239502D01*
X0261147Y0239374D01*
X0261242Y0239244D01*
X0261334Y0239112D01*
X0261422Y0238978D01*
X0261507Y0238841D01*
X0261589Y0238703D01*
X0261667Y0238562D01*
X0261741Y0238420D01*
X0261812Y0238276D01*
X0261880Y0238130D01*
X0261943Y0237982D01*
X0262004Y0237833D01*
X0262060Y0237682D01*
X0262113Y0237530D01*
X0262162Y0237377D01*
X0262207Y0237223D01*
X0262248Y0237068D01*
X0262286Y0236911D01*
X0262319Y0236754D01*
X0262349Y0236596D01*
X0262375Y0236437D01*
X0262396Y0236278D01*
X0262414Y0236118D01*
X0262428Y0235958D01*
X0262438Y0235797D01*
X0262444Y0235637D01*
X0262446Y0235476D01*
X0262444Y0235315D01*
X0262438Y0235155D01*
X0262428Y0234994D01*
X0262414Y0234834D01*
X0262396Y0234674D01*
X0262375Y0234515D01*
X0262349Y0234356D01*
X0262319Y0234198D01*
X0262286Y0234041D01*
X0262248Y0233884D01*
X0262207Y0233729D01*
X0262162Y0233575D01*
X0262113Y0233422D01*
X0262060Y0233270D01*
X0262004Y0233119D01*
X0261943Y0232970D01*
X0261880Y0232822D01*
X0261812Y0232676D01*
X0261741Y0232532D01*
X0261667Y0232390D01*
X0261589Y0232249D01*
X0261507Y0232111D01*
X0261422Y0231974D01*
X0261334Y0231840D01*
X0261242Y0231708D01*
X0261147Y0231578D01*
X0261049Y0231450D01*
X0260948Y0231325D01*
X0260844Y0231203D01*
X0260737Y0231083D01*
X0260627Y0230966D01*
X0260514Y0230851D01*
X0260398Y0230740D01*
X0260279Y0230631D01*
X0260158Y0230526D01*
X0260034Y0230423D01*
X0259908Y0230323D01*
X0259780Y0230227D01*
X0259649Y0230134D01*
X0259515Y0230044D01*
X0259380Y0229957D01*
X0259242Y0229874D01*
X0259103Y0229794D01*
X0258961Y0229718D01*
X0258818Y0229645D01*
X0258673Y0229576D01*
X0258526Y0229510D01*
X0258378Y0229448D01*
X0258228Y0229390D01*
X0258077Y0229335D01*
X0257924Y0229284D01*
X0257770Y0229237D01*
X0257615Y0229194D01*
X0257459Y0229155D01*
X0257303Y0229119D01*
X0257145Y0229088D01*
X0256987Y0229060D01*
X0256828Y0229036D01*
X0256668Y0229016D01*
X0256508Y0229000D01*
X0256348Y0228988D01*
X0256187Y0228980D01*
X0256026Y0228976D01*
X0255866Y0228976D01*
X0255705Y0228980D01*
X0255544Y0228988D01*
X0255384Y0229000D01*
X0255224Y0229016D01*
X0255064Y0229036D01*
X0254905Y0229060D01*
X0254747Y0229088D01*
X0254589Y0229119D01*
X0254433Y0229155D01*
X0254277Y0229194D01*
X0254122Y0229237D01*
X0253968Y0229284D01*
X0253815Y0229335D01*
X0253664Y0229390D01*
X0253514Y0229448D01*
X0253366Y0229510D01*
X0253219Y0229576D01*
X0253074Y0229645D01*
X0252931Y0229718D01*
X0252789Y0229794D01*
X0252650Y0229874D01*
X0252512Y0229957D01*
X0252377Y0230044D01*
X0252243Y0230134D01*
X0252112Y0230227D01*
X0251984Y0230323D01*
X0251858Y0230423D01*
X0251734Y0230526D01*
X0251613Y0230631D01*
X0251494Y0230740D01*
X0251378Y0230851D01*
X0251265Y0230966D01*
X0251155Y0231083D01*
X0251048Y0231203D01*
X0250944Y0231325D01*
X0250843Y0231450D01*
X0250745Y0231578D01*
X0250650Y0231708D01*
X0250558Y0231840D01*
X0250470Y0231974D01*
X0250385Y0232111D01*
X0250303Y0232249D01*
X0250225Y0232390D01*
X0250151Y0232532D01*
X0250080Y0232676D01*
X0250012Y0232822D01*
X0249949Y0232970D01*
X0249888Y0233119D01*
X0249832Y0233270D01*
X0249779Y0233422D01*
X0249730Y0233575D01*
X0249685Y0233729D01*
X0249644Y0233884D01*
X0249606Y0234041D01*
X0249573Y0234198D01*
X0249543Y0234356D01*
X0249517Y0234515D01*
X0249496Y0234674D01*
X0249478Y0234834D01*
X0249464Y0234994D01*
X0249454Y0235155D01*
X0249448Y0235315D01*
X0249446Y0235476D01*
D11*
X0244345Y0218835D02*
X0244345Y0216500D01*
X0244345Y0217668D02*
X0247848Y0217668D01*
X0246680Y0216500D01*
X0244345Y0215152D02*
X0244345Y0212817D01*
X0244345Y0213984D02*
X0247848Y0213984D01*
X0246680Y0212817D01*
X0247848Y0211469D02*
X0247848Y0210301D01*
X0247848Y0210885D02*
X0244929Y0210885D01*
X0244345Y0210301D01*
X0244345Y0209717D01*
X0244929Y0209134D01*
X0241845Y0169866D02*
X0239510Y0167531D01*
X0238926Y0167531D01*
X0238342Y0168115D01*
X0238342Y0169282D01*
X0238926Y0169866D01*
X0241845Y0169866D02*
X0241845Y0167531D01*
X0241261Y0166183D02*
X0238926Y0163848D01*
X0241261Y0163848D01*
X0241845Y0164432D01*
X0241845Y0165599D01*
X0241261Y0166183D01*
X0238926Y0166183D01*
X0238342Y0165599D01*
X0238342Y0164432D01*
X0238926Y0163848D01*
X0238786Y0162686D02*
X0239370Y0162102D01*
X0239370Y0161518D01*
X0238786Y0160935D01*
X0237618Y0160935D01*
X0237035Y0160351D01*
X0237035Y0159767D01*
X0237618Y0159183D01*
X0238786Y0159183D01*
X0239370Y0159767D01*
X0238786Y0162686D02*
X0237618Y0162686D01*
X0237035Y0162102D01*
X0235687Y0162686D02*
X0233935Y0162686D01*
X0233351Y0162102D01*
X0233351Y0159767D01*
X0233935Y0159183D01*
X0235687Y0159183D01*
X0235687Y0162686D01*
X0232004Y0161518D02*
X0232004Y0159183D01*
X0232004Y0160935D02*
X0229668Y0160935D01*
X0229668Y0161518D02*
X0229668Y0159183D01*
X0227870Y0159767D02*
X0227286Y0159183D01*
X0226118Y0159183D01*
X0225535Y0159767D01*
X0225535Y0160351D01*
X0226118Y0160935D01*
X0227286Y0160935D01*
X0227870Y0161518D01*
X0227870Y0162102D01*
X0227286Y0162686D01*
X0226118Y0162686D01*
X0225535Y0162102D01*
X0224187Y0162102D02*
X0224187Y0159767D01*
X0223603Y0159183D01*
X0222435Y0159183D01*
X0221851Y0159767D01*
X0220504Y0159183D02*
X0218168Y0159183D01*
X0220504Y0159183D02*
X0220504Y0162686D01*
X0221851Y0162102D02*
X0222435Y0162686D01*
X0223603Y0162686D01*
X0224187Y0162102D01*
X0229668Y0161518D02*
X0230836Y0162686D01*
X0232004Y0161518D01*
X0216432Y0155425D02*
X0215264Y0156593D01*
X0215848Y0157177D01*
X0216432Y0155425D02*
X0215848Y0154841D01*
X0215261Y0159189D02*
X0215845Y0159773D01*
X0215845Y0160941D01*
X0215261Y0161525D01*
X0214094Y0161525D02*
X0213510Y0160357D01*
X0213510Y0159773D01*
X0214094Y0159189D01*
X0215261Y0159189D01*
X0214094Y0161525D02*
X0212342Y0161525D01*
X0212342Y0159189D01*
X0205345Y0159773D02*
X0204761Y0159189D01*
X0204177Y0159189D01*
X0203594Y0159773D01*
X0203594Y0161525D01*
X0204761Y0161525D01*
X0205345Y0160941D01*
X0205345Y0159773D01*
X0203594Y0161525D02*
X0202426Y0160357D01*
X0201842Y0159189D01*
X0195845Y0160115D02*
X0195261Y0159531D01*
X0192926Y0159531D01*
X0192342Y0160115D01*
X0192342Y0161282D01*
X0192926Y0161866D01*
X0193510Y0161866D01*
X0194094Y0161282D01*
X0194094Y0159531D01*
X0195845Y0160115D02*
X0195845Y0161282D01*
X0195261Y0161866D01*
X0192342Y0158183D02*
X0191758Y0157599D01*
X0192926Y0156432D01*
X0192342Y0155848D01*
X0185345Y0156773D02*
X0185345Y0157941D01*
X0184761Y0158525D01*
X0182426Y0156189D01*
X0184761Y0156189D01*
X0185345Y0156773D01*
X0184761Y0158525D02*
X0182426Y0158525D01*
X0181842Y0157941D01*
X0181842Y0156773D01*
X0182426Y0156189D01*
X0181842Y0154841D02*
X0181258Y0154258D01*
X0182426Y0153090D01*
X0181842Y0152506D01*
X0175345Y0156189D02*
X0175345Y0158525D01*
X0175345Y0157357D02*
X0171842Y0157357D01*
X0173010Y0158525D01*
X0175345Y0159872D02*
X0175345Y0162208D01*
X0175345Y0161040D02*
X0171842Y0161040D01*
X0173010Y0162208D01*
X0165345Y0162366D02*
X0165345Y0160031D01*
X0165345Y0161199D02*
X0161842Y0161199D01*
X0163010Y0162366D01*
X0162426Y0158683D02*
X0161842Y0158099D01*
X0161842Y0156932D01*
X0162426Y0156348D01*
X0163010Y0156348D01*
X0165345Y0158683D01*
X0165345Y0156348D01*
X0171258Y0154258D02*
X0172426Y0153090D01*
X0171842Y0152506D01*
X0171258Y0154258D02*
X0171842Y0154841D01*
X0181842Y0161040D02*
X0183010Y0162208D01*
X0181842Y0161040D02*
X0185345Y0161040D01*
X0185345Y0162208D02*
X0185345Y0159872D01*
X0155345Y0160031D02*
X0155345Y0162366D01*
X0155345Y0161199D02*
X0151842Y0161199D01*
X0153010Y0162366D01*
X0152426Y0158683D02*
X0151842Y0158099D01*
X0151842Y0156932D01*
X0152426Y0156348D01*
X0153010Y0156348D01*
X0153594Y0156932D01*
X0154177Y0156348D01*
X0154761Y0156348D01*
X0155345Y0156932D01*
X0155345Y0158099D01*
X0154761Y0158683D01*
X0153594Y0157515D02*
X0153594Y0156932D01*
X0145845Y0156615D02*
X0145845Y0158366D01*
X0142342Y0158366D01*
X0142342Y0156615D01*
X0142926Y0156031D01*
X0143510Y0156031D01*
X0144094Y0156615D01*
X0144094Y0158366D01*
X0144677Y0159714D02*
X0142342Y0159714D01*
X0142342Y0162049D02*
X0144677Y0162049D01*
X0145845Y0160882D01*
X0144677Y0159714D01*
X0144094Y0156615D02*
X0144677Y0156031D01*
X0145261Y0156031D01*
X0145845Y0156615D01*
X0145261Y0154683D02*
X0142342Y0154683D01*
X0142342Y0152348D02*
X0145261Y0152348D01*
X0145845Y0152932D01*
X0145845Y0154099D01*
X0145261Y0154683D01*
X0145261Y0151000D02*
X0145845Y0150416D01*
X0145845Y0149248D01*
X0145261Y0148665D01*
X0144677Y0148665D01*
X0144094Y0149248D01*
X0144094Y0150416D01*
X0143510Y0151000D01*
X0142926Y0151000D01*
X0142342Y0150416D01*
X0142342Y0149248D01*
X0142926Y0148665D01*
X0135845Y0156348D02*
X0134094Y0156348D01*
X0133510Y0156932D01*
X0133510Y0158683D01*
X0135845Y0158683D01*
X0135845Y0160031D02*
X0135845Y0162366D01*
X0132342Y0162366D01*
X0132342Y0160031D01*
X0134094Y0161199D02*
X0134094Y0162366D01*
X0125845Y0162708D02*
X0125845Y0160956D01*
X0125261Y0160372D01*
X0124677Y0160372D01*
X0124094Y0160956D01*
X0124094Y0162708D01*
X0125845Y0162708D02*
X0122342Y0162708D01*
X0122342Y0160956D01*
X0122926Y0160372D01*
X0123510Y0160372D01*
X0124094Y0160956D01*
X0124094Y0159025D02*
X0124094Y0156689D01*
X0123510Y0156689D02*
X0125845Y0156689D01*
X0123510Y0156689D02*
X0122342Y0157857D01*
X0123510Y0159025D01*
X0125845Y0159025D01*
X0125845Y0154174D02*
X0122342Y0154174D01*
X0122342Y0155341D02*
X0122342Y0153006D01*
X0074647Y0118623D02*
X0074647Y0115120D01*
X0072312Y0115120D01*
X0070964Y0115120D02*
X0069796Y0115120D01*
X0070380Y0115120D02*
X0070380Y0117455D01*
X0070964Y0117455D01*
X0070380Y0118623D02*
X0070380Y0119207D01*
X0068508Y0118623D02*
X0066757Y0118623D01*
X0066173Y0118039D01*
X0066173Y0116872D01*
X0066757Y0116288D01*
X0068508Y0116288D01*
X0068508Y0115120D02*
X0068508Y0118623D01*
X0064825Y0116872D02*
X0064825Y0115704D01*
X0064241Y0115120D01*
X0063074Y0115120D01*
X0062490Y0115704D01*
X0062490Y0116872D01*
X0063074Y0117455D01*
X0064241Y0117455D01*
X0064825Y0116872D01*
X0061142Y0118623D02*
X0060558Y0118623D01*
X0060558Y0115120D01*
X0061142Y0115120D02*
X0059974Y0115120D01*
X0058687Y0115704D02*
X0058103Y0115120D01*
X0056351Y0115120D01*
X0056351Y0114536D02*
X0056935Y0113952D01*
X0057519Y0113952D01*
X0056351Y0114536D02*
X0056351Y0117455D01*
X0058687Y0117455D02*
X0058687Y0115704D01*
X0058470Y0121120D02*
X0057886Y0121704D01*
X0057886Y0122872D01*
X0058470Y0123455D01*
X0059638Y0123455D01*
X0060221Y0122872D01*
X0060221Y0121704D01*
X0059638Y0121120D01*
X0058470Y0121120D01*
X0056538Y0121120D02*
X0056538Y0123455D01*
X0056538Y0122288D02*
X0055371Y0123455D01*
X0054787Y0123455D01*
X0053469Y0122872D02*
X0051134Y0122872D01*
X0051104Y0127120D02*
X0050520Y0127704D01*
X0051104Y0127120D02*
X0052271Y0127120D01*
X0052855Y0127704D01*
X0052855Y0130039D01*
X0052271Y0130623D01*
X0051104Y0130623D01*
X0050520Y0130039D01*
X0049172Y0128872D02*
X0048588Y0129455D01*
X0047420Y0129455D01*
X0046837Y0128872D01*
X0046837Y0128288D01*
X0049172Y0128288D01*
X0049172Y0127704D02*
X0049172Y0128872D01*
X0049172Y0127704D02*
X0048588Y0127120D01*
X0047420Y0127120D01*
X0045489Y0127120D02*
X0044321Y0127120D01*
X0044905Y0127120D02*
X0044905Y0130623D01*
X0045489Y0130623D01*
X0043033Y0130623D02*
X0042450Y0130623D01*
X0042450Y0127120D01*
X0043033Y0127120D02*
X0041866Y0127120D01*
X0043370Y0133120D02*
X0043954Y0133120D01*
X0043954Y0133704D01*
X0043370Y0133704D01*
X0043370Y0133120D01*
X0043370Y0134872D02*
X0043954Y0134872D01*
X0043954Y0135455D01*
X0043370Y0135455D01*
X0043370Y0134872D01*
X0045302Y0134872D02*
X0045302Y0133120D01*
X0045302Y0134872D02*
X0045886Y0135455D01*
X0047637Y0135455D01*
X0047637Y0133120D01*
X0048925Y0133120D02*
X0050093Y0133120D01*
X0049509Y0133120D02*
X0049509Y0136623D01*
X0050093Y0136623D02*
X0048925Y0136623D01*
X0055094Y0135455D02*
X0055677Y0135455D01*
X0056845Y0134288D01*
X0056845Y0135455D02*
X0056845Y0133120D01*
X0058193Y0134288D02*
X0058193Y0134872D01*
X0058777Y0135455D01*
X0059944Y0135455D01*
X0060528Y0134872D01*
X0060528Y0133704D01*
X0059944Y0133120D01*
X0058777Y0133120D01*
X0058193Y0134288D02*
X0060528Y0134288D01*
X0061876Y0133704D02*
X0061876Y0135455D01*
X0061876Y0133704D02*
X0062460Y0133120D01*
X0063044Y0133704D01*
X0063628Y0133120D01*
X0064211Y0133704D01*
X0064211Y0135455D01*
X0065559Y0134872D02*
X0065559Y0133704D01*
X0066143Y0133120D01*
X0067311Y0133120D01*
X0067895Y0133704D01*
X0067895Y0134872D01*
X0067311Y0135455D01*
X0066143Y0135455D01*
X0065559Y0134872D01*
X0069242Y0134872D02*
X0069826Y0134288D01*
X0071578Y0134288D01*
X0071578Y0133120D02*
X0071578Y0136623D01*
X0069826Y0136623D01*
X0069242Y0136039D01*
X0069242Y0134872D01*
X0071361Y0130623D02*
X0070777Y0130039D01*
X0071361Y0130623D02*
X0072529Y0130623D01*
X0073112Y0130039D01*
X0073112Y0129455D01*
X0072529Y0128872D01*
X0071361Y0128872D01*
X0070777Y0128288D01*
X0070777Y0127704D01*
X0071361Y0127120D01*
X0072529Y0127120D01*
X0073112Y0127704D01*
X0069429Y0127704D02*
X0069429Y0128872D01*
X0068845Y0129455D01*
X0067678Y0129455D01*
X0067094Y0128872D01*
X0067094Y0127704D01*
X0067678Y0127120D01*
X0068845Y0127120D01*
X0069429Y0127704D01*
X0065746Y0127120D02*
X0064578Y0127120D01*
X0065162Y0127120D02*
X0065162Y0130623D01*
X0065746Y0130623D01*
X0062707Y0129455D02*
X0061539Y0129455D01*
X0060955Y0128872D01*
X0060955Y0127120D01*
X0062707Y0127120D01*
X0063291Y0127704D01*
X0062707Y0128288D01*
X0060955Y0128288D01*
X0059608Y0128288D02*
X0058440Y0129455D01*
X0057856Y0129455D01*
X0059608Y0129455D02*
X0059608Y0127120D01*
X0061569Y0122872D02*
X0063905Y0122872D01*
X0051320Y0118623D02*
X0051320Y0115120D01*
X0049569Y0115120D01*
X0048985Y0115704D01*
X0048985Y0116288D01*
X0049569Y0116872D01*
X0051320Y0116872D01*
X0049569Y0116872D02*
X0048985Y0117455D01*
X0048985Y0118039D01*
X0049569Y0118623D01*
X0051320Y0118623D01*
X0047053Y0117455D02*
X0045886Y0117455D01*
X0045302Y0116872D01*
X0045302Y0115120D01*
X0047053Y0115120D01*
X0047637Y0115704D01*
X0047053Y0116288D01*
X0045302Y0116288D01*
X0043954Y0117455D02*
X0042786Y0117455D01*
X0043370Y0118039D02*
X0043370Y0115704D01*
X0042786Y0115120D01*
X0040915Y0115704D02*
X0040915Y0118039D01*
X0041499Y0117455D02*
X0040331Y0117455D01*
X0040915Y0115704D02*
X0040331Y0115120D01*
X0082342Y0100708D02*
X0082342Y0098956D01*
X0082926Y0098372D01*
X0084094Y0098372D01*
X0084677Y0098956D01*
X0084677Y0100708D01*
X0084677Y0099540D02*
X0085845Y0098372D01*
X0085261Y0097025D02*
X0085845Y0096441D01*
X0085845Y0095273D01*
X0085261Y0094689D01*
X0084677Y0094689D01*
X0084094Y0095273D01*
X0084094Y0096441D01*
X0083510Y0097025D01*
X0082926Y0097025D01*
X0082342Y0096441D01*
X0082342Y0095273D01*
X0082926Y0094689D01*
X0082342Y0093341D02*
X0082342Y0091006D01*
X0082342Y0092174D02*
X0085845Y0092174D01*
X0092842Y0091848D02*
X0095177Y0091848D01*
X0096345Y0093015D01*
X0095177Y0094183D01*
X0092842Y0094183D01*
X0093426Y0095531D02*
X0094010Y0095531D01*
X0094594Y0096115D01*
X0095177Y0095531D01*
X0095761Y0095531D01*
X0096345Y0096115D01*
X0096345Y0097282D01*
X0095761Y0097866D01*
X0094594Y0096699D02*
X0094594Y0096115D01*
X0093426Y0095531D02*
X0092842Y0096115D01*
X0092842Y0097282D01*
X0093426Y0097866D01*
X0085845Y0100708D02*
X0082342Y0100708D01*
X0102342Y0099426D02*
X0103510Y0098259D01*
X0105845Y0098259D01*
X0105845Y0096911D02*
X0102342Y0096911D01*
X0102342Y0095159D01*
X0102926Y0094575D01*
X0104094Y0094575D01*
X0104677Y0095159D01*
X0104677Y0096911D01*
X0104677Y0095743D02*
X0105845Y0094575D01*
X0105845Y0092644D02*
X0102926Y0092644D01*
X0102342Y0092060D01*
X0104094Y0092060D02*
X0104094Y0093228D01*
X0104094Y0098259D02*
X0104094Y0100594D01*
X0103510Y0100594D02*
X0102342Y0099426D01*
X0103510Y0100594D02*
X0105845Y0100594D01*
X0112342Y0100456D02*
X0112342Y0101624D01*
X0112926Y0102208D01*
X0115261Y0102208D01*
X0115845Y0101624D01*
X0115845Y0100456D01*
X0115261Y0099872D01*
X0114094Y0099872D01*
X0114094Y0101040D01*
X0112926Y0099872D02*
X0112342Y0100456D01*
X0112342Y0098525D02*
X0115845Y0096189D01*
X0112342Y0096189D01*
X0112342Y0094841D02*
X0112342Y0093090D01*
X0112926Y0092506D01*
X0115261Y0092506D01*
X0115845Y0093090D01*
X0115845Y0094841D01*
X0112342Y0094841D01*
X0112342Y0098525D02*
X0115845Y0098525D01*
X0122342Y0096699D02*
X0123510Y0095531D01*
X0125845Y0095531D01*
X0125261Y0094183D02*
X0125845Y0093599D01*
X0125845Y0092432D01*
X0125261Y0091848D01*
X0122926Y0091848D01*
X0125261Y0094183D01*
X0122926Y0094183D01*
X0122342Y0093599D01*
X0122342Y0092432D01*
X0122926Y0091848D01*
X0124094Y0095531D02*
X0124094Y0097866D01*
X0123510Y0097866D02*
X0122342Y0096699D01*
X0123510Y0097866D02*
X0125845Y0097866D01*
X0131842Y0096199D02*
X0133010Y0095031D01*
X0135345Y0095031D01*
X0135345Y0093683D02*
X0135345Y0091348D01*
X0135345Y0092515D02*
X0131842Y0092515D01*
X0133010Y0093683D01*
X0133594Y0095031D02*
X0133594Y0097366D01*
X0133010Y0097366D02*
X0131842Y0096199D01*
X0133010Y0097366D02*
X0135345Y0097366D01*
X0141842Y0096699D02*
X0143010Y0095531D01*
X0145345Y0095531D01*
X0145345Y0094183D02*
X0143010Y0091848D01*
X0142426Y0091848D01*
X0141842Y0092432D01*
X0141842Y0093599D01*
X0142426Y0094183D01*
X0143594Y0095531D02*
X0143594Y0097866D01*
X0143010Y0097866D02*
X0141842Y0096699D01*
X0143010Y0097866D02*
X0145345Y0097866D01*
X0145345Y0094183D02*
X0145345Y0091848D01*
X0152342Y0092432D02*
X0152926Y0091848D01*
X0153510Y0091848D01*
X0154094Y0092432D01*
X0154677Y0091848D01*
X0155261Y0091848D01*
X0155845Y0092432D01*
X0155845Y0093599D01*
X0155261Y0094183D01*
X0155845Y0095531D02*
X0153510Y0095531D01*
X0152342Y0096699D01*
X0153510Y0097866D01*
X0155845Y0097866D01*
X0154094Y0097866D02*
X0154094Y0095531D01*
X0152926Y0094183D02*
X0152342Y0093599D01*
X0152342Y0092432D01*
X0154094Y0092432D02*
X0154094Y0093015D01*
X0161842Y0092432D02*
X0163594Y0094183D01*
X0163594Y0091848D01*
X0165345Y0092432D02*
X0161842Y0092432D01*
X0163010Y0095531D02*
X0165345Y0095531D01*
X0163594Y0095531D02*
X0163594Y0097866D01*
X0163010Y0097866D02*
X0161842Y0096699D01*
X0163010Y0095531D01*
X0163010Y0097866D02*
X0165345Y0097866D01*
X0172342Y0096699D02*
X0173510Y0095531D01*
X0175845Y0095531D01*
X0175261Y0094183D02*
X0175845Y0093599D01*
X0175845Y0092432D01*
X0175261Y0091848D01*
X0174094Y0091848D01*
X0173510Y0092432D01*
X0173510Y0093015D01*
X0174094Y0094183D01*
X0172342Y0094183D01*
X0172342Y0091848D01*
X0174094Y0095531D02*
X0174094Y0097866D01*
X0173510Y0097866D02*
X0172342Y0096699D01*
X0173510Y0097866D02*
X0175845Y0097866D01*
X0181342Y0096941D02*
X0181926Y0097525D01*
X0184261Y0097525D01*
X0184845Y0096941D01*
X0184845Y0095773D01*
X0184261Y0095189D01*
X0183677Y0093841D02*
X0181342Y0091506D01*
X0181342Y0093841D02*
X0184845Y0093841D01*
X0185842Y0093932D02*
X0187594Y0095683D01*
X0187594Y0093348D01*
X0189345Y0093932D02*
X0185842Y0093932D01*
X0184845Y0091506D02*
X0183094Y0093258D01*
X0181926Y0095189D02*
X0181342Y0095773D01*
X0181342Y0096941D01*
X0181926Y0098872D02*
X0181342Y0099456D01*
X0181342Y0100624D01*
X0181926Y0101208D01*
X0182510Y0101208D01*
X0183094Y0100624D01*
X0183094Y0099456D01*
X0183677Y0098872D01*
X0184261Y0098872D01*
X0184845Y0099456D01*
X0184845Y0100624D01*
X0184261Y0101208D01*
X0186426Y0099366D02*
X0185842Y0098782D01*
X0185842Y0097615D01*
X0186426Y0097031D01*
X0187010Y0097031D01*
X0189345Y0099366D01*
X0189345Y0097031D01*
X0211010Y0094686D02*
X0213345Y0091183D01*
X0214693Y0091183D02*
X0215861Y0092351D01*
X0215277Y0092351D02*
X0217028Y0092351D01*
X0217028Y0091183D02*
X0217028Y0094686D01*
X0215277Y0094686D01*
X0214693Y0094102D01*
X0214693Y0092935D01*
X0215277Y0092351D01*
X0213345Y0094686D02*
X0211010Y0091183D01*
X0217345Y0084593D02*
X0217345Y0083425D01*
X0217929Y0082841D01*
X0220264Y0085177D01*
X0217929Y0085177D01*
X0217345Y0084593D01*
X0217929Y0082841D02*
X0220264Y0082841D01*
X0220848Y0083425D01*
X0220848Y0084593D01*
X0220264Y0085177D01*
X0221510Y0091183D02*
X0223845Y0094686D01*
X0225193Y0094686D02*
X0227528Y0094686D01*
X0226361Y0094686D02*
X0226361Y0091183D01*
X0223845Y0091183D02*
X0221510Y0094686D01*
X0228010Y0085525D02*
X0226842Y0084357D01*
X0230345Y0084357D01*
X0230345Y0085525D02*
X0230345Y0083189D01*
X0237782Y0083683D02*
X0240117Y0083683D01*
X0237782Y0086018D01*
X0237782Y0086602D01*
X0238366Y0087186D01*
X0239534Y0087186D01*
X0240117Y0086602D01*
X0241465Y0085435D02*
X0242049Y0086018D01*
X0243217Y0086018D01*
X0243801Y0085435D01*
X0243801Y0084267D01*
X0243217Y0083683D01*
X0242049Y0083683D01*
X0241465Y0084267D01*
X0241465Y0085435D01*
X0245088Y0083683D02*
X0246256Y0083683D01*
X0245672Y0083683D02*
X0245672Y0086018D01*
X0246256Y0086018D01*
X0245672Y0087186D02*
X0245672Y0087770D01*
X0246429Y0136134D02*
X0245845Y0136717D01*
X0245845Y0137301D01*
X0246429Y0137885D01*
X0249348Y0137885D01*
X0249348Y0137301D02*
X0249348Y0138469D01*
X0248180Y0139817D02*
X0249348Y0140984D01*
X0245845Y0140984D01*
X0245845Y0139817D02*
X0245845Y0142152D01*
X0246429Y0143500D02*
X0248764Y0145835D01*
X0246429Y0145835D01*
X0245845Y0145251D01*
X0245845Y0144084D01*
X0246429Y0143500D01*
X0248764Y0143500D01*
X0249348Y0144084D01*
X0249348Y0145251D01*
X0248764Y0145835D01*
X0119370Y0068686D02*
X0119370Y0066351D01*
X0118202Y0065183D01*
X0117035Y0066351D01*
X0117035Y0068686D01*
X0115687Y0068686D02*
X0115687Y0065183D01*
X0113935Y0065183D01*
X0113351Y0065767D01*
X0113351Y0068102D01*
X0113935Y0068686D01*
X0115687Y0068686D01*
X0112004Y0068686D02*
X0112004Y0065183D01*
X0110252Y0065183D01*
X0109668Y0065767D01*
X0109668Y0068102D01*
X0110252Y0068686D01*
X0112004Y0068686D01*
X0111504Y0075683D02*
X0109752Y0075683D01*
X0109168Y0076267D01*
X0109168Y0078602D01*
X0109752Y0079186D01*
X0111504Y0079186D01*
X0111504Y0075683D01*
X0112851Y0075683D02*
X0112851Y0079186D01*
X0115187Y0079186D02*
X0112851Y0075683D01*
X0115187Y0075683D02*
X0115187Y0079186D01*
X0116535Y0078602D02*
X0117118Y0079186D01*
X0118286Y0079186D01*
X0118870Y0078602D01*
X0118870Y0076267D01*
X0118286Y0075683D01*
X0117118Y0075683D01*
X0116535Y0076267D01*
X0116535Y0077435D01*
X0117702Y0077435D01*
X0095845Y0076773D02*
X0095261Y0076189D01*
X0092926Y0076189D01*
X0092342Y0076773D01*
X0092342Y0078525D01*
X0095845Y0078525D01*
X0095845Y0076773D01*
X0095845Y0074841D02*
X0095845Y0073090D01*
X0095261Y0072506D01*
X0092926Y0072506D01*
X0092342Y0073090D01*
X0092342Y0074841D01*
X0095845Y0074841D01*
X0094677Y0079872D02*
X0092342Y0079872D01*
X0094677Y0079872D02*
X0095845Y0081040D01*
X0094677Y0082208D01*
X0092342Y0082208D01*
D12*
X0125762Y0213960D02*
X0124327Y0215395D01*
X0124327Y0216829D01*
X0125762Y0218264D01*
X0127497Y0217547D02*
X0128214Y0218264D01*
X0129648Y0218264D01*
X0130366Y0217547D01*
X0130366Y0214678D01*
X0127497Y0217547D01*
X0127497Y0214678D01*
X0128214Y0213960D01*
X0129648Y0213960D01*
X0130366Y0214678D01*
X0132101Y0213960D02*
X0132101Y0218264D01*
X0133535Y0216829D01*
X0134970Y0218264D01*
X0134970Y0213960D01*
X0136604Y0213960D02*
X0138039Y0215395D01*
X0138039Y0216829D01*
X0136604Y0218264D01*
X0137966Y0220244D02*
X0137966Y0224548D01*
X0135814Y0224548D01*
X0135096Y0223831D01*
X0135096Y0222396D01*
X0135814Y0221679D01*
X0137966Y0221679D01*
X0139700Y0221679D02*
X0139700Y0223831D01*
X0140418Y0224548D01*
X0141135Y0223831D01*
X0141135Y0221679D01*
X0142570Y0221679D02*
X0142570Y0224548D01*
X0141852Y0224548D01*
X0141135Y0223831D01*
X0144304Y0223831D02*
X0145022Y0224548D01*
X0146456Y0224548D01*
X0147173Y0223831D01*
X0147173Y0222396D01*
X0146456Y0221679D01*
X0145022Y0221679D01*
X0144304Y0222396D01*
X0144304Y0223831D01*
X0145095Y0218264D02*
X0144378Y0217547D01*
X0144378Y0216829D01*
X0145095Y0216112D01*
X0146530Y0216112D01*
X0147247Y0216829D01*
X0147247Y0217547D01*
X0146530Y0218264D01*
X0145095Y0218264D01*
X0145095Y0216112D02*
X0144378Y0215395D01*
X0144378Y0214678D01*
X0145095Y0213960D01*
X0146530Y0213960D01*
X0147247Y0214678D01*
X0147247Y0215395D01*
X0146530Y0216112D01*
X0148982Y0213960D02*
X0151851Y0213960D01*
X0150416Y0213960D02*
X0150416Y0218264D01*
X0151851Y0216829D01*
X0153586Y0216112D02*
X0155020Y0216112D01*
X0153586Y0216112D02*
X0153586Y0214678D01*
X0154303Y0213960D01*
X0155737Y0213960D01*
X0156455Y0214678D01*
X0156455Y0217547D01*
X0155737Y0218264D01*
X0154303Y0218264D01*
X0153586Y0217547D01*
X0151060Y0221679D02*
X0148908Y0221679D01*
X0151060Y0221679D02*
X0151777Y0222396D01*
X0151777Y0223831D01*
X0151060Y0224548D01*
X0148908Y0224548D01*
X0148525Y0229179D02*
X0150676Y0229179D01*
X0151394Y0229896D01*
X0150676Y0230613D01*
X0148525Y0230613D01*
X0148525Y0231331D02*
X0148525Y0229179D01*
X0148525Y0231331D02*
X0149242Y0232048D01*
X0150676Y0232048D01*
X0153128Y0232765D02*
X0153846Y0233482D01*
X0155998Y0233482D01*
X0155998Y0229179D01*
X0155998Y0230613D02*
X0153846Y0230613D01*
X0153128Y0231331D01*
X0153128Y0232765D01*
X0154563Y0230613D02*
X0153128Y0229179D01*
X0157732Y0229896D02*
X0157732Y0231331D01*
X0158450Y0232048D01*
X0159884Y0232048D01*
X0160602Y0231331D01*
X0160602Y0229896D01*
X0159884Y0229179D01*
X0158450Y0229179D01*
X0157732Y0229896D01*
X0158116Y0224548D02*
X0160268Y0224548D01*
X0160985Y0223831D01*
X0160985Y0222396D01*
X0160268Y0221679D01*
X0158116Y0221679D01*
X0158116Y0220961D02*
X0158116Y0224548D01*
X0162720Y0223831D02*
X0162720Y0221679D01*
X0162720Y0223831D02*
X0163437Y0224548D01*
X0165589Y0224548D01*
X0165589Y0221679D01*
X0167224Y0221679D02*
X0168658Y0221679D01*
X0167941Y0221679D02*
X0167941Y0224548D01*
X0168658Y0224548D01*
X0167941Y0225982D02*
X0167941Y0226700D01*
X0170393Y0224548D02*
X0170393Y0222396D01*
X0171110Y0221679D01*
X0171828Y0222396D01*
X0172545Y0221679D01*
X0173262Y0222396D01*
X0173262Y0224548D01*
X0174947Y0224548D02*
X0175664Y0224548D01*
X0177099Y0223113D01*
X0177099Y0221679D02*
X0177099Y0224548D01*
X0178834Y0223831D02*
X0178834Y0223113D01*
X0181703Y0223113D01*
X0181703Y0222396D02*
X0181703Y0223831D01*
X0180986Y0224548D01*
X0179551Y0224548D01*
X0178834Y0223831D01*
X0179551Y0221679D02*
X0180986Y0221679D01*
X0181703Y0222396D01*
X0183438Y0221679D02*
X0183438Y0223831D01*
X0184155Y0224548D01*
X0185590Y0224548D01*
X0186307Y0223831D01*
X0187942Y0224548D02*
X0189376Y0224548D01*
X0188659Y0225265D02*
X0188659Y0222396D01*
X0187942Y0221679D01*
X0186307Y0221679D02*
X0186307Y0225982D01*
X0188225Y0229179D02*
X0188225Y0233482D01*
X0185356Y0233482D01*
X0183621Y0233482D02*
X0182187Y0232048D01*
X0180752Y0233482D01*
X0180752Y0229179D01*
X0179017Y0229896D02*
X0178300Y0229179D01*
X0176865Y0229179D01*
X0176148Y0229896D01*
X0176148Y0232765D01*
X0176865Y0233482D01*
X0178300Y0233482D01*
X0179017Y0232765D01*
X0179017Y0232048D01*
X0178300Y0231331D01*
X0176148Y0231331D01*
X0174413Y0232048D02*
X0171544Y0229179D01*
X0174413Y0229179D02*
X0171544Y0232048D01*
X0165205Y0233482D02*
X0165205Y0229179D01*
X0162336Y0229179D01*
X0158116Y0220961D02*
X0158833Y0220244D01*
X0159551Y0220244D01*
X0159624Y0218264D02*
X0159624Y0213960D01*
X0161059Y0213960D02*
X0158189Y0213960D01*
X0161059Y0216829D02*
X0159624Y0218264D01*
X0162793Y0217547D02*
X0163511Y0218264D01*
X0164945Y0218264D01*
X0165663Y0217547D01*
X0167397Y0217547D02*
X0168115Y0218264D01*
X0170266Y0218264D01*
X0170266Y0213960D01*
X0168115Y0213960D01*
X0167397Y0214678D01*
X0167397Y0217547D01*
X0165663Y0213960D02*
X0162793Y0213960D01*
X0162793Y0216829D02*
X0162793Y0217547D01*
X0162793Y0216829D02*
X0165663Y0213960D01*
X0172001Y0213960D02*
X0172001Y0218264D01*
X0173436Y0216829D01*
X0174870Y0218264D01*
X0174870Y0213960D01*
X0176605Y0213960D02*
X0176605Y0216829D01*
X0178040Y0218264D01*
X0179474Y0216829D01*
X0179474Y0213960D01*
X0181209Y0214678D02*
X0181209Y0215395D01*
X0181926Y0216112D01*
X0183361Y0216112D01*
X0184078Y0216829D01*
X0184078Y0217547D01*
X0183361Y0218264D01*
X0181926Y0218264D01*
X0181209Y0217547D01*
X0179474Y0216112D02*
X0176605Y0216112D01*
X0181209Y0214678D02*
X0181926Y0213960D01*
X0183361Y0213960D01*
X0184078Y0214678D01*
X0187248Y0213960D02*
X0187248Y0218264D01*
X0188682Y0218264D02*
X0185813Y0218264D01*
X0190417Y0216829D02*
X0190417Y0213960D01*
X0190417Y0216112D02*
X0193286Y0216112D01*
X0193286Y0216829D02*
X0191852Y0218264D01*
X0190417Y0216829D01*
X0193286Y0216829D02*
X0193286Y0213960D01*
X0193263Y0221679D02*
X0193980Y0222396D01*
X0193263Y0223113D01*
X0191111Y0223113D01*
X0191111Y0223831D02*
X0191111Y0221679D01*
X0193263Y0221679D01*
X0195715Y0223113D02*
X0198584Y0223113D01*
X0198584Y0222396D02*
X0198584Y0223831D01*
X0197867Y0224548D01*
X0196432Y0224548D01*
X0195715Y0223831D01*
X0195715Y0223113D01*
X0196432Y0221679D02*
X0197867Y0221679D01*
X0198584Y0222396D01*
X0201753Y0223831D02*
X0203188Y0223831D01*
X0203188Y0225982D02*
X0203188Y0221679D01*
X0203188Y0225982D02*
X0200319Y0225982D01*
X0193263Y0224548D02*
X0191828Y0224548D01*
X0191111Y0223831D01*
X0189960Y0229179D02*
X0191394Y0230613D01*
X0190677Y0230613D02*
X0192829Y0230613D01*
X0192829Y0229179D02*
X0192829Y0233482D01*
X0190677Y0233482D01*
X0189960Y0232765D01*
X0189960Y0231331D01*
X0190677Y0230613D01*
X0188225Y0231331D02*
X0186791Y0231331D01*
X0183621Y0233482D02*
X0183621Y0229179D01*
X0142186Y0229179D02*
X0142186Y0233482D01*
X0140034Y0233482D01*
X0139317Y0232765D01*
X0139317Y0231331D01*
X0140034Y0230613D01*
X0142186Y0230613D01*
X0140751Y0230613D02*
X0139317Y0229179D01*
X0137582Y0229896D02*
X0136865Y0230613D01*
X0134713Y0230613D01*
X0134713Y0231331D02*
X0134713Y0229179D01*
X0136865Y0229179D01*
X0137582Y0229896D01*
X0136865Y0232048D02*
X0135430Y0232048D01*
X0134713Y0231331D01*
X0132978Y0231331D02*
X0132261Y0232048D01*
X0130109Y0232048D01*
X0130109Y0233482D02*
X0130109Y0229179D01*
X0132261Y0229179D01*
X0132978Y0229896D01*
X0132978Y0231331D01*
X0128374Y0232048D02*
X0127657Y0232048D01*
X0127657Y0229179D01*
X0128374Y0229179D02*
X0126939Y0229179D01*
X0125305Y0229896D02*
X0125305Y0231331D01*
X0124587Y0232048D01*
X0123153Y0232048D01*
X0122436Y0231331D01*
X0122436Y0229896D01*
X0123153Y0229179D01*
X0124587Y0229179D01*
X0125305Y0229896D01*
X0124971Y0226700D02*
X0124971Y0225982D01*
X0124971Y0224548D02*
X0124971Y0221679D01*
X0125688Y0221679D02*
X0124254Y0221679D01*
X0122619Y0221679D02*
X0120467Y0221679D01*
X0119750Y0222396D01*
X0119750Y0223831D01*
X0120467Y0224548D01*
X0122619Y0224548D01*
X0122619Y0225982D02*
X0122619Y0221679D01*
X0124971Y0224548D02*
X0125688Y0224548D01*
X0127323Y0224548D02*
X0128758Y0224548D01*
X0128040Y0225265D02*
X0128040Y0222396D01*
X0127323Y0221679D01*
X0130493Y0221679D02*
X0132644Y0221679D01*
X0133362Y0222396D01*
X0132644Y0223113D01*
X0130493Y0223113D01*
X0130493Y0223831D02*
X0130493Y0221679D01*
X0130493Y0223831D02*
X0131210Y0224548D01*
X0132644Y0224548D01*
X0127657Y0233482D02*
X0127657Y0234200D01*
X0118015Y0225982D02*
X0117298Y0225982D01*
X0117298Y0221679D01*
X0118015Y0221679D02*
X0116581Y0221679D01*
X0114946Y0222396D02*
X0114946Y0223831D01*
X0114229Y0224548D01*
X0112794Y0224548D01*
X0112077Y0223831D01*
X0112077Y0223113D01*
X0114946Y0223113D01*
X0114946Y0222396D02*
X0114229Y0221679D01*
X0112794Y0221679D01*
D13*
X0089478Y0229281D02*
X0087743Y0227546D01*
X0086008Y0229281D01*
X0086008Y0232751D01*
X0084321Y0232751D02*
X0081719Y0232751D01*
X0080852Y0231883D01*
X0080852Y0228414D01*
X0081719Y0227546D01*
X0084321Y0227546D01*
X0084321Y0232751D01*
X0089478Y0232751D02*
X0089478Y0229281D01*
X0079165Y0227546D02*
X0076563Y0227546D01*
X0075695Y0228414D01*
X0075695Y0231883D01*
X0076563Y0232751D01*
X0079165Y0232751D01*
X0079165Y0227546D01*
X0136504Y0238133D02*
X0139574Y0238133D01*
X0141108Y0238133D02*
X0141876Y0238133D01*
X0141876Y0238900D01*
X0141108Y0238900D01*
X0141108Y0238133D01*
X0143410Y0238133D02*
X0146479Y0238133D01*
X0144945Y0238133D02*
X0144945Y0242737D01*
X0146479Y0241202D01*
X0152618Y0241202D02*
X0154153Y0238133D01*
X0155687Y0241202D01*
X0157222Y0240435D02*
X0157222Y0239668D01*
X0160291Y0239668D01*
X0160291Y0240435D02*
X0159524Y0241202D01*
X0157989Y0241202D01*
X0157222Y0240435D01*
X0157989Y0238133D02*
X0159524Y0238133D01*
X0160291Y0238900D01*
X0160291Y0240435D01*
X0161826Y0240435D02*
X0162593Y0239668D01*
X0164895Y0239668D01*
X0163361Y0239668D02*
X0161826Y0238133D01*
X0161826Y0240435D02*
X0161826Y0241970D01*
X0162593Y0242737D01*
X0164895Y0242737D01*
X0164895Y0238133D01*
X0139574Y0241202D02*
X0138039Y0242737D01*
X0138039Y0238133D01*
X0225574Y0230883D02*
X0225574Y0227414D01*
X0226441Y0226546D01*
X0229044Y0226546D01*
X0229044Y0231751D01*
X0226441Y0231751D01*
X0225574Y0230883D01*
X0230730Y0231751D02*
X0230730Y0226546D01*
X0234200Y0231751D01*
X0234200Y0226546D01*
X0235887Y0227414D02*
X0235887Y0229149D01*
X0237622Y0229149D01*
X0239356Y0230883D02*
X0238489Y0231751D01*
X0236754Y0231751D01*
X0235887Y0230883D01*
X0235887Y0227414D02*
X0236754Y0226546D01*
X0238489Y0226546D01*
X0239356Y0227414D01*
X0239356Y0230883D01*
X0260297Y0194946D02*
X0257695Y0191477D01*
X0260297Y0189790D02*
X0260297Y0186320D01*
X0258563Y0184633D02*
X0257695Y0183766D01*
X0257695Y0182031D01*
X0258563Y0181164D01*
X0262032Y0181164D01*
X0262900Y0182031D01*
X0262900Y0183766D01*
X0262032Y0184633D01*
X0262900Y0179461D02*
X0262900Y0177726D01*
X0262900Y0178594D02*
X0257695Y0178594D01*
X0257695Y0179461D02*
X0257695Y0177726D01*
X0257695Y0176023D02*
X0257695Y0174289D01*
X0257695Y0175156D02*
X0262900Y0175156D01*
X0262900Y0174289D02*
X0262900Y0176023D01*
X0262900Y0172602D02*
X0257695Y0172602D01*
X0259430Y0170867D01*
X0257695Y0169132D01*
X0262900Y0169132D01*
X0262032Y0167445D02*
X0258563Y0167445D01*
X0257695Y0166578D01*
X0257695Y0164843D01*
X0258563Y0163976D01*
X0262032Y0163976D01*
X0262900Y0164843D01*
X0262900Y0166578D01*
X0262032Y0167445D01*
X0259430Y0165711D02*
X0257695Y0167445D01*
X0260297Y0162289D02*
X0260297Y0158819D01*
X0257695Y0157133D02*
X0260297Y0153663D01*
X0262900Y0157133D01*
X0230645Y0164165D02*
X0230645Y0166233D01*
X0230645Y0165199D02*
X0227542Y0165199D01*
X0228577Y0166233D01*
X0228577Y0167387D02*
X0228060Y0167387D01*
X0227542Y0167905D01*
X0227542Y0168939D01*
X0228060Y0169456D01*
X0228577Y0167387D02*
X0230645Y0169456D01*
X0230645Y0167387D01*
X0262900Y0191477D02*
X0260297Y0194946D01*
X0204145Y0102141D02*
X0201042Y0102141D01*
X0202077Y0101107D01*
X0201042Y0100073D01*
X0204145Y0100073D01*
X0204145Y0098919D02*
X0204145Y0097884D01*
X0204145Y0098402D02*
X0201042Y0098402D01*
X0201042Y0098919D02*
X0201042Y0097884D01*
X0201560Y0096770D02*
X0202077Y0096770D01*
X0202594Y0096253D01*
X0202594Y0095219D01*
X0203111Y0094702D01*
X0203628Y0094702D01*
X0204145Y0095219D01*
X0204145Y0096253D01*
X0203628Y0096770D01*
X0201560Y0096770D02*
X0201042Y0096253D01*
X0201042Y0095219D01*
X0201560Y0094702D01*
X0201560Y0093547D02*
X0203628Y0093547D01*
X0204145Y0093030D01*
X0204145Y0091996D01*
X0203628Y0091479D01*
X0201560Y0091479D01*
X0201042Y0091996D01*
X0201042Y0093030D01*
X0201560Y0093547D01*
X0198645Y0094682D02*
X0198645Y0095716D01*
X0198128Y0096233D01*
X0198645Y0097387D02*
X0198645Y0099456D01*
X0196577Y0097387D01*
X0196060Y0097387D01*
X0195542Y0097905D01*
X0195542Y0098939D01*
X0196060Y0099456D01*
X0194645Y0100073D02*
X0191542Y0100073D01*
X0192577Y0101107D01*
X0191542Y0102141D01*
X0194645Y0102141D01*
X0194128Y0098919D02*
X0192060Y0098919D01*
X0191542Y0098402D01*
X0191542Y0097367D01*
X0192060Y0096850D01*
X0194128Y0096850D01*
X0194645Y0097367D01*
X0194645Y0098402D01*
X0194128Y0098919D01*
X0194128Y0095696D02*
X0194645Y0095179D01*
X0194645Y0094145D01*
X0194128Y0093628D01*
X0193611Y0093628D01*
X0193094Y0094145D01*
X0193094Y0095179D01*
X0192577Y0095696D01*
X0192060Y0095696D01*
X0191542Y0095179D01*
X0191542Y0094145D01*
X0192060Y0093628D01*
X0191542Y0092473D02*
X0191542Y0091439D01*
X0191542Y0091956D02*
X0194645Y0091956D01*
X0194645Y0092473D02*
X0194645Y0091439D01*
X0196060Y0094165D02*
X0196577Y0094165D01*
X0197094Y0094682D01*
X0197611Y0094165D01*
X0198128Y0094165D01*
X0198645Y0094682D01*
X0197094Y0094682D02*
X0197094Y0095199D01*
X0196060Y0096233D02*
X0195542Y0095716D01*
X0195542Y0094682D01*
X0196060Y0094165D01*
X0205042Y0093905D02*
X0205042Y0094939D01*
X0205560Y0095456D01*
X0205042Y0093905D02*
X0205560Y0093387D01*
X0206077Y0093387D01*
X0208145Y0095456D01*
X0208145Y0093387D01*
X0208145Y0092233D02*
X0206077Y0090165D01*
X0205560Y0090165D01*
X0205042Y0090682D01*
X0205042Y0091716D01*
X0205560Y0092233D01*
X0208145Y0092233D02*
X0208145Y0090165D01*
X0046400Y0088079D02*
X0046400Y0085477D01*
X0041195Y0085477D01*
X0041195Y0088079D01*
X0042063Y0088946D01*
X0045532Y0088946D01*
X0046400Y0088079D01*
X0046400Y0083790D02*
X0041195Y0083790D01*
X0046400Y0080320D01*
X0041195Y0080320D01*
X0042063Y0078633D02*
X0041195Y0077766D01*
X0041195Y0076031D01*
X0042063Y0075164D01*
X0045532Y0075164D01*
X0046400Y0076031D01*
X0046400Y0077766D01*
X0045532Y0078633D01*
X0043797Y0078633D02*
X0043797Y0076899D01*
X0043797Y0078633D02*
X0042063Y0078633D01*
D14*
X0089095Y0061933D02*
X0089095Y0096933D01*
X0099095Y0096933D02*
X0099095Y0081933D01*
X0109095Y0081933D01*
X0109095Y0096933D01*
X0119095Y0096933D02*
X0119095Y0082433D01*
X0239095Y0082433D01*
X0239095Y0071933D01*
X0239095Y0061933D01*
X0089095Y0061933D01*
X0099095Y0071933D02*
X0099095Y0081933D01*
X0099095Y0071933D02*
X0239095Y0071933D01*
X0239445Y0118833D02*
X0239445Y0121635D01*
X0238044Y0123037D01*
X0236643Y0121635D01*
X0236643Y0118833D01*
X0234841Y0119534D02*
X0234141Y0118833D01*
X0232039Y0118833D01*
X0230237Y0119534D02*
X0229537Y0118833D01*
X0227435Y0118833D01*
X0225633Y0119534D02*
X0225633Y0120935D01*
X0224933Y0121635D01*
X0223532Y0121635D01*
X0222831Y0120935D01*
X0222831Y0120234D01*
X0225633Y0120234D01*
X0225633Y0119534D02*
X0224933Y0118833D01*
X0223532Y0118833D01*
X0221029Y0118833D02*
X0219628Y0118833D01*
X0220329Y0118833D02*
X0220329Y0123037D01*
X0221029Y0123037D01*
X0223064Y0126583D02*
X0220262Y0130787D01*
X0218460Y0130787D02*
X0218460Y0126583D01*
X0215658Y0126583D02*
X0215658Y0130787D01*
X0217059Y0129385D01*
X0218460Y0130787D01*
X0220962Y0134083D02*
X0220262Y0134784D01*
X0220262Y0136185D01*
X0220962Y0136885D01*
X0222363Y0136885D01*
X0223064Y0136185D01*
X0223064Y0134784D01*
X0222363Y0134083D01*
X0220962Y0134083D01*
X0224732Y0134083D02*
X0226133Y0134083D01*
X0225433Y0134083D02*
X0225433Y0136885D01*
X0226133Y0136885D01*
X0225433Y0138287D02*
X0225433Y0138987D01*
X0227935Y0138287D02*
X0227935Y0134083D01*
X0230037Y0134083D01*
X0230737Y0134784D01*
X0230737Y0136185D01*
X0230037Y0136885D01*
X0227935Y0136885D01*
X0232539Y0136185D02*
X0232539Y0134083D01*
X0234641Y0134083D01*
X0235341Y0134784D01*
X0234641Y0135484D01*
X0232539Y0135484D01*
X0232539Y0136185D02*
X0233239Y0136885D01*
X0234641Y0136885D01*
X0237143Y0137586D02*
X0237143Y0136185D01*
X0237843Y0135484D01*
X0239945Y0135484D01*
X0239945Y0134083D02*
X0239945Y0138287D01*
X0237843Y0138287D01*
X0237143Y0137586D01*
X0238544Y0135484D02*
X0237143Y0134083D01*
X0237143Y0130787D02*
X0237143Y0126583D01*
X0235341Y0126583D02*
X0233940Y0126583D01*
X0234641Y0126583D02*
X0234641Y0130787D01*
X0235341Y0130787D02*
X0233940Y0130787D01*
X0232272Y0130086D02*
X0232272Y0129385D01*
X0231571Y0128685D01*
X0230170Y0128685D01*
X0229470Y0127984D01*
X0229470Y0127284D01*
X0230170Y0126583D01*
X0231571Y0126583D01*
X0232272Y0127284D01*
X0232272Y0130086D02*
X0231571Y0130787D01*
X0230170Y0130787D01*
X0229470Y0130086D01*
X0227668Y0130086D02*
X0227668Y0127284D01*
X0226967Y0126583D01*
X0225566Y0126583D01*
X0224866Y0127284D01*
X0224866Y0130086D01*
X0225566Y0130787D01*
X0226967Y0130787D01*
X0227668Y0130086D01*
X0227435Y0121635D02*
X0229537Y0121635D01*
X0230237Y0120935D01*
X0230237Y0119534D01*
X0232039Y0121635D02*
X0234141Y0121635D01*
X0234841Y0120935D01*
X0234841Y0119534D01*
X0236643Y0120935D02*
X0239445Y0120935D01*
X0239945Y0126583D02*
X0239945Y0130787D01*
X0238544Y0129385D01*
X0237143Y0130787D01*
X0213856Y0130086D02*
X0213856Y0127284D01*
X0213156Y0126583D01*
X0211754Y0126583D01*
X0211054Y0127284D01*
X0211054Y0130086D01*
X0211754Y0130787D01*
X0213156Y0130787D01*
X0213856Y0130086D01*
X0213156Y0134083D02*
X0211054Y0134083D01*
X0211054Y0136885D01*
X0209252Y0136185D02*
X0208552Y0136885D01*
X0206450Y0136885D01*
X0207151Y0135484D02*
X0208552Y0135484D01*
X0209252Y0136185D01*
X0209252Y0134083D02*
X0207151Y0134083D01*
X0206450Y0134784D01*
X0207151Y0135484D01*
X0204648Y0135484D02*
X0201846Y0135484D01*
X0201846Y0136185D01*
X0202547Y0136885D01*
X0203948Y0136885D01*
X0204648Y0136185D01*
X0204648Y0134784D01*
X0203948Y0134083D01*
X0202547Y0134083D01*
X0200044Y0134083D02*
X0197943Y0134083D01*
X0197242Y0134784D01*
X0197943Y0135484D01*
X0199344Y0135484D01*
X0200044Y0136185D01*
X0199344Y0136885D01*
X0197242Y0136885D01*
X0195441Y0136885D02*
X0195441Y0136185D01*
X0194740Y0136185D01*
X0194740Y0136885D01*
X0195441Y0136885D01*
X0195441Y0134784D02*
X0195441Y0134083D01*
X0194740Y0134083D01*
X0194740Y0134784D01*
X0195441Y0134784D01*
X0194873Y0130787D02*
X0196275Y0130787D01*
X0196975Y0130086D01*
X0196975Y0129385D01*
X0196275Y0128685D01*
X0194873Y0128685D01*
X0194173Y0127984D01*
X0194173Y0127284D01*
X0194873Y0126583D01*
X0196275Y0126583D01*
X0196975Y0127284D01*
X0198777Y0130787D02*
X0201579Y0126583D01*
X0203247Y0126583D02*
X0204648Y0126583D01*
X0203948Y0126583D02*
X0203948Y0130787D01*
X0204648Y0130787D02*
X0203247Y0130787D01*
X0206450Y0130086D02*
X0207151Y0130787D01*
X0208552Y0130787D01*
X0209252Y0130086D01*
X0209252Y0129385D01*
X0208552Y0128685D01*
X0207151Y0128685D01*
X0206450Y0127984D01*
X0206450Y0127284D01*
X0207151Y0126583D01*
X0208552Y0126583D01*
X0209252Y0127284D01*
X0210554Y0123037D02*
X0211955Y0122336D01*
X0213356Y0120935D01*
X0211254Y0120935D01*
X0210554Y0120234D01*
X0210554Y0119534D01*
X0211254Y0118833D01*
X0212656Y0118833D01*
X0213356Y0119534D01*
X0213356Y0120935D01*
X0208752Y0120935D02*
X0205950Y0120935D01*
X0204148Y0123037D02*
X0202747Y0123037D01*
X0203448Y0123037D02*
X0203448Y0118833D01*
X0204148Y0118833D02*
X0202747Y0118833D01*
X0201079Y0118833D02*
X0201079Y0123037D01*
X0198277Y0118833D01*
X0198277Y0123037D01*
X0196475Y0123037D02*
X0193673Y0123037D01*
X0195074Y0123037D02*
X0195074Y0118833D01*
X0191671Y0126583D02*
X0190269Y0126583D01*
X0189569Y0127284D01*
X0187767Y0127984D02*
X0184965Y0130787D01*
X0187767Y0130787D02*
X0187767Y0126583D01*
X0187067Y0128685D02*
X0184965Y0126583D01*
X0189569Y0130086D02*
X0190269Y0130787D01*
X0191671Y0130787D01*
X0192371Y0130086D01*
X0192371Y0127284D01*
X0191671Y0126583D01*
X0194173Y0130086D02*
X0194873Y0130787D01*
X0178559Y0128685D02*
X0175757Y0128685D01*
X0173956Y0128685D02*
X0171153Y0128685D01*
X0169352Y0127984D02*
X0167250Y0127984D01*
X0166549Y0128685D01*
X0166549Y0130086D01*
X0167250Y0130787D01*
X0169352Y0130787D01*
X0169352Y0126583D01*
X0167950Y0127984D02*
X0166549Y0126583D01*
X0164748Y0127284D02*
X0164047Y0126583D01*
X0162646Y0126583D01*
X0161945Y0127284D01*
X0161945Y0127984D01*
X0162646Y0128685D01*
X0164047Y0128685D01*
X0164748Y0129385D01*
X0164748Y0130086D01*
X0164047Y0130787D01*
X0162646Y0130787D01*
X0161945Y0130086D01*
X0160144Y0130787D02*
X0157341Y0130787D01*
X0158743Y0130787D02*
X0158743Y0126583D01*
X0155540Y0125182D02*
X0154139Y0126583D01*
X0154839Y0126583D01*
X0154839Y0127284D01*
X0154139Y0127284D01*
X0154139Y0126583D01*
X0152471Y0127284D02*
X0151770Y0126583D01*
X0150369Y0126583D01*
X0149668Y0127284D01*
X0149668Y0127984D01*
X0150369Y0128685D01*
X0151069Y0128685D01*
X0150369Y0128685D02*
X0149668Y0129385D01*
X0149668Y0130086D01*
X0150369Y0130787D01*
X0151770Y0130787D01*
X0152471Y0130086D01*
X0147867Y0128685D02*
X0145064Y0128685D01*
X0143263Y0130787D02*
X0141862Y0130787D01*
X0142562Y0130787D02*
X0142562Y0126583D01*
X0141862Y0126583D02*
X0143263Y0126583D01*
X0140193Y0126583D02*
X0140193Y0130787D01*
X0138092Y0130787D01*
X0137391Y0130086D01*
X0137391Y0128685D01*
X0138092Y0127984D01*
X0140193Y0127984D01*
X0138792Y0127984D02*
X0137391Y0126583D01*
X0135590Y0127284D02*
X0134889Y0126583D01*
X0133488Y0126583D01*
X0132787Y0127284D01*
X0132787Y0130086D01*
X0133488Y0130787D01*
X0134889Y0130787D01*
X0135590Y0130086D01*
X0135590Y0127284D01*
X0134188Y0127984D02*
X0132787Y0126583D01*
X0130986Y0125182D02*
X0129584Y0126583D01*
X0130285Y0126583D01*
X0130285Y0127284D01*
X0129584Y0127284D01*
X0129584Y0126583D01*
X0127916Y0127284D02*
X0127916Y0127984D01*
X0127216Y0128685D01*
X0125815Y0128685D01*
X0125114Y0127984D01*
X0125114Y0127284D01*
X0125815Y0126583D01*
X0127216Y0126583D01*
X0127916Y0127284D01*
X0127216Y0128685D02*
X0127916Y0129385D01*
X0127916Y0130086D01*
X0127216Y0130787D01*
X0125815Y0130787D01*
X0125114Y0130086D01*
X0125114Y0129385D01*
X0125815Y0128685D01*
X0123312Y0128685D02*
X0120510Y0128685D01*
X0118708Y0130086D02*
X0118708Y0127284D01*
X0118008Y0126583D01*
X0116607Y0126583D01*
X0115906Y0127284D01*
X0114105Y0127284D02*
X0113404Y0126583D01*
X0112003Y0126583D01*
X0111302Y0127284D01*
X0111302Y0127984D01*
X0112003Y0128685D01*
X0113404Y0128685D01*
X0114105Y0129385D01*
X0114105Y0130086D01*
X0113404Y0130787D01*
X0112003Y0130787D01*
X0111302Y0130086D01*
X0115906Y0130086D02*
X0116607Y0130787D01*
X0118008Y0130787D01*
X0118708Y0130086D01*
X0176458Y0130787D02*
X0176458Y0126583D01*
X0178559Y0128685D02*
X0176458Y0130787D01*
X0213156Y0134083D02*
X0213856Y0134784D01*
X0213856Y0136885D01*
D15*
X0255473Y0135575D02*
X0255473Y0132622D01*
X0261969Y0132622D01*
X0272205Y0138528D02*
X0272205Y0150339D01*
X0261969Y0156244D02*
X0255473Y0156244D01*
X0255473Y0153291D01*
X0239182Y0191183D02*
X0235178Y0191183D01*
X0232736Y0192184D02*
X0231735Y0191183D01*
X0229734Y0191183D01*
X0228733Y0192184D01*
X0228733Y0197188D01*
X0226291Y0197188D02*
X0224289Y0197188D01*
X0225290Y0197188D02*
X0225290Y0191183D01*
X0226291Y0191183D02*
X0224289Y0191183D01*
X0232736Y0192184D02*
X0232736Y0197188D01*
X0235178Y0197188D02*
X0239182Y0197188D01*
X0239182Y0191183D01*
X0239182Y0194186D02*
X0237180Y0194186D01*
X0236179Y0201683D02*
X0235178Y0202684D01*
X0235178Y0206687D01*
X0236179Y0207688D01*
X0239182Y0207688D01*
X0239182Y0201683D01*
X0236179Y0201683D01*
X0232736Y0202684D02*
X0232736Y0204686D01*
X0231735Y0205686D01*
X0229734Y0205686D01*
X0228733Y0204686D01*
X0228733Y0203685D01*
X0232736Y0203685D01*
X0232736Y0202684D02*
X0231735Y0201683D01*
X0229734Y0201683D01*
X0226291Y0205686D02*
X0224289Y0201683D01*
X0222287Y0205686D01*
X0255473Y0201075D02*
X0255473Y0198122D01*
X0261969Y0198122D01*
X0272205Y0204028D02*
X0272205Y0215839D01*
X0261969Y0221744D02*
X0255473Y0221744D01*
X0255473Y0218791D01*
D16*
X0039095Y0256933D02*
X0039095Y0056933D01*
X0274095Y0056933D01*
X0274095Y0256933D01*
X0039095Y0256933D01*
X0076695Y0212441D02*
X0076695Y0210706D01*
X0076695Y0211574D02*
X0079297Y0211574D01*
X0078430Y0210706D01*
X0078864Y0209495D02*
X0077996Y0209495D01*
X0077563Y0209061D01*
X0077563Y0207760D01*
X0076695Y0207760D02*
X0079297Y0207760D01*
X0079297Y0209061D01*
X0078864Y0209495D01*
X0079297Y0206548D02*
X0079297Y0205681D01*
X0079297Y0206114D02*
X0077129Y0206114D01*
X0076695Y0205681D01*
X0076695Y0205247D01*
X0077129Y0204813D01*
X0263907Y0114266D02*
X0263907Y0112314D01*
X0264558Y0111664D01*
X0265208Y0112314D01*
X0265208Y0114266D01*
X0265859Y0114266D02*
X0263907Y0114266D01*
X0265859Y0114266D02*
X0266509Y0113616D01*
X0266509Y0112314D01*
X0265859Y0110123D02*
X0263907Y0110123D01*
X0265859Y0110123D02*
X0266509Y0109472D01*
X0266509Y0107520D01*
X0263907Y0107520D01*
X0263907Y0105979D02*
X0265859Y0105979D01*
X0266509Y0105328D01*
X0266509Y0103377D01*
X0263907Y0103377D01*
X0265208Y0101836D02*
X0265208Y0099233D01*
X0264558Y0099233D02*
X0265859Y0099233D01*
X0266509Y0099884D01*
X0266509Y0101185D01*
X0265859Y0101836D01*
X0265208Y0101836D01*
X0263907Y0101185D02*
X0263907Y0099884D01*
X0264558Y0099233D01*
X0263907Y0097772D02*
X0264558Y0097121D01*
X0267160Y0097121D01*
X0266509Y0096471D02*
X0266509Y0097772D01*
X0265859Y0094930D02*
X0263907Y0094930D01*
X0265859Y0094930D02*
X0266509Y0094279D01*
X0266509Y0092327D01*
X0263907Y0092327D01*
X0263907Y0090786D02*
X0266509Y0090786D01*
X0267810Y0089485D01*
X0266509Y0088184D01*
X0263907Y0088184D01*
X0265859Y0088184D02*
X0265859Y0090786D01*
D17*
X0164945Y0250083D02*
X0164945Y0253786D01*
X0164328Y0252552D02*
X0164945Y0251935D01*
X0164328Y0252552D02*
X0163094Y0252552D01*
X0162476Y0251935D01*
X0162476Y0250083D01*
X0160645Y0250700D02*
X0160645Y0253169D01*
X0161262Y0252552D02*
X0160028Y0252552D01*
X0158807Y0252552D02*
X0157572Y0252552D01*
X0158189Y0253169D02*
X0158189Y0250700D01*
X0157572Y0250083D01*
X0156351Y0250083D02*
X0154500Y0250083D01*
X0153882Y0250700D01*
X0153882Y0251935D01*
X0154500Y0252552D01*
X0156351Y0252552D01*
X0156351Y0248849D01*
X0160028Y0250083D02*
X0160645Y0250700D01*
X0152668Y0250083D02*
X0150816Y0250083D01*
X0150199Y0250700D01*
X0150816Y0251317D01*
X0152051Y0251317D01*
X0152668Y0251935D01*
X0152051Y0252552D01*
X0150199Y0252552D01*
X0148985Y0252552D02*
X0148985Y0251935D01*
X0148368Y0251935D01*
X0148368Y0252552D01*
X0148985Y0252552D01*
X0148985Y0250700D02*
X0148985Y0250083D01*
X0148368Y0250083D01*
X0148368Y0250700D01*
X0148985Y0250700D01*
X0147143Y0250083D02*
X0144675Y0253786D01*
X0140991Y0253786D02*
X0143460Y0250083D01*
X0139777Y0250700D02*
X0139777Y0251935D01*
X0139160Y0252552D01*
X0137308Y0252552D01*
X0137308Y0249466D01*
X0137925Y0248849D01*
X0138543Y0248849D01*
X0139160Y0250083D02*
X0137308Y0250083D01*
X0136094Y0250083D02*
X0134859Y0250083D01*
X0135477Y0250083D02*
X0135477Y0252552D01*
X0136094Y0252552D01*
X0135477Y0253786D02*
X0135477Y0254403D01*
X0133638Y0252552D02*
X0132404Y0252552D01*
X0133021Y0253169D02*
X0133021Y0250700D01*
X0132404Y0250083D01*
X0131183Y0250083D02*
X0131183Y0253786D01*
X0130566Y0252552D02*
X0129331Y0252552D01*
X0128714Y0251935D01*
X0128714Y0250083D01*
X0127500Y0250700D02*
X0126883Y0250083D01*
X0125031Y0250083D01*
X0125031Y0252552D01*
X0123817Y0252552D02*
X0121965Y0252552D01*
X0121348Y0251935D01*
X0121348Y0250700D01*
X0121965Y0250083D01*
X0123817Y0250083D01*
X0123817Y0253786D01*
X0127500Y0252552D02*
X0127500Y0250700D01*
X0130566Y0252552D02*
X0131183Y0251935D01*
X0139160Y0250083D02*
X0139777Y0250700D01*
X0120134Y0250700D02*
X0119516Y0250700D01*
X0119516Y0250083D01*
X0120134Y0250083D01*
X0120134Y0250700D01*
X0118292Y0250700D02*
X0118292Y0251935D01*
X0117675Y0252552D01*
X0115823Y0252552D01*
X0114609Y0251935D02*
X0114609Y0250700D01*
X0113992Y0250083D01*
X0112757Y0250083D01*
X0112140Y0250700D01*
X0112140Y0251935D01*
X0112757Y0252552D01*
X0113992Y0252552D01*
X0114609Y0251935D01*
X0115823Y0250083D02*
X0117675Y0250083D01*
X0118292Y0250700D01*
X0110926Y0250083D02*
X0110926Y0252552D01*
X0110309Y0252552D01*
X0109691Y0251935D01*
X0109074Y0252552D01*
X0108457Y0251935D01*
X0108457Y0250083D01*
X0107243Y0250083D02*
X0104774Y0253786D01*
X0103559Y0252552D02*
X0102325Y0253786D01*
X0102325Y0250083D01*
X0103559Y0250083D02*
X0101091Y0250083D01*
X0099876Y0250700D02*
X0099876Y0251317D01*
X0099259Y0251935D01*
X0098025Y0251935D01*
X0097407Y0251317D01*
X0097407Y0250700D01*
X0098025Y0250083D01*
X0099259Y0250083D01*
X0099876Y0250700D01*
X0099259Y0251935D02*
X0099876Y0252552D01*
X0099876Y0253169D01*
X0099259Y0253786D01*
X0098025Y0253786D01*
X0097407Y0253169D01*
X0097407Y0252552D01*
X0098025Y0251935D01*
X0096193Y0253169D02*
X0096193Y0250700D01*
X0093724Y0253169D01*
X0093724Y0250700D01*
X0094342Y0250083D01*
X0095576Y0250083D01*
X0096193Y0250700D01*
X0096193Y0253169D02*
X0095576Y0253786D01*
X0094342Y0253786D01*
X0093724Y0253169D01*
X0092510Y0253169D02*
X0092510Y0252552D01*
X0091893Y0251935D01*
X0090658Y0251935D01*
X0090041Y0251317D01*
X0090041Y0250700D01*
X0090658Y0250083D01*
X0091893Y0250083D01*
X0092510Y0250700D01*
X0092510Y0253169D02*
X0091893Y0253786D01*
X0090658Y0253786D01*
X0090041Y0253169D01*
X0088827Y0252552D02*
X0087592Y0252552D01*
X0088210Y0253169D02*
X0088210Y0250700D01*
X0087592Y0250083D01*
X0086371Y0250700D02*
X0086371Y0252552D01*
X0086371Y0250700D02*
X0085754Y0250083D01*
X0083903Y0250083D01*
X0083903Y0252552D01*
X0082688Y0251935D02*
X0082688Y0250700D01*
X0082071Y0250083D01*
X0080219Y0250083D01*
X0080219Y0253786D01*
X0080219Y0252552D02*
X0082071Y0252552D01*
X0082688Y0251935D01*
X0079005Y0252552D02*
X0078388Y0252552D01*
X0078388Y0250083D01*
X0079005Y0250083D02*
X0077771Y0250083D01*
X0076550Y0250700D02*
X0076550Y0251935D01*
X0075933Y0252552D01*
X0074698Y0252552D01*
X0074081Y0251935D01*
X0074081Y0250700D01*
X0074698Y0250083D01*
X0075933Y0250083D01*
X0076550Y0250700D01*
X0078388Y0253786D02*
X0078388Y0254403D01*
X0072867Y0251935D02*
X0072249Y0252552D01*
X0070398Y0252552D01*
X0071015Y0251317D02*
X0070398Y0250700D01*
X0071015Y0250083D01*
X0072867Y0250083D01*
X0072249Y0251317D02*
X0072867Y0251935D01*
X0072249Y0251317D02*
X0071015Y0251317D01*
X0069183Y0250083D02*
X0066715Y0253786D01*
X0064883Y0252552D02*
X0063031Y0252552D01*
X0061817Y0251935D02*
X0061817Y0250700D01*
X0061200Y0250083D01*
X0059966Y0250083D01*
X0059348Y0250700D01*
X0059348Y0251935D01*
X0059966Y0252552D01*
X0061200Y0252552D01*
X0061817Y0251935D01*
X0063031Y0250700D02*
X0063649Y0251317D01*
X0064883Y0251317D01*
X0065500Y0251935D01*
X0064883Y0252552D01*
X0065500Y0250083D02*
X0063649Y0250083D01*
X0063031Y0250700D01*
X0058134Y0250083D02*
X0056900Y0250083D01*
X0057517Y0250083D02*
X0057517Y0253786D01*
X0058134Y0253786D01*
X0055679Y0251935D02*
X0055679Y0250700D01*
X0055061Y0250083D01*
X0053827Y0250083D01*
X0053210Y0250700D01*
X0053210Y0251935D01*
X0053827Y0252552D01*
X0055061Y0252552D01*
X0055679Y0251935D01*
X0051995Y0252552D02*
X0051995Y0250083D01*
X0051995Y0251317D02*
X0050761Y0252552D01*
X0050144Y0252552D01*
X0048309Y0252552D02*
X0047075Y0252552D01*
X0046457Y0251935D01*
X0046457Y0250083D01*
X0048309Y0250083D01*
X0048926Y0250700D01*
X0048309Y0251317D01*
X0046457Y0251317D01*
X0109691Y0251935D02*
X0109691Y0250083D01*
X0087945Y0138786D02*
X0087945Y0136317D01*
X0086711Y0135083D01*
X0085476Y0136317D01*
X0085476Y0138786D01*
X0084262Y0138786D02*
X0082410Y0138786D01*
X0081793Y0138169D01*
X0081793Y0137552D01*
X0082410Y0136935D01*
X0084262Y0136935D01*
X0084262Y0138786D02*
X0084262Y0135083D01*
X0082410Y0135083D01*
X0081793Y0135700D01*
X0081793Y0136317D01*
X0082410Y0136935D01*
X0080579Y0136935D02*
X0078110Y0136935D01*
X0078110Y0137552D02*
X0078110Y0135083D01*
X0075661Y0135083D02*
X0075661Y0138786D01*
X0074427Y0138786D02*
X0076896Y0138786D01*
X0078110Y0137552D02*
X0079344Y0138786D01*
X0080579Y0137552D01*
X0080579Y0135083D01*
X0080079Y0116286D02*
X0078227Y0116286D01*
X0077610Y0115669D01*
X0077610Y0113200D01*
X0078227Y0112583D01*
X0080079Y0112583D01*
X0080079Y0116286D01*
X0081293Y0116286D02*
X0081293Y0112583D01*
X0083762Y0116286D01*
X0083762Y0112583D01*
X0084976Y0113200D02*
X0084976Y0114435D01*
X0086211Y0114435D01*
X0087445Y0115669D02*
X0086828Y0116286D01*
X0085594Y0116286D01*
X0084976Y0115669D01*
X0084976Y0113200D02*
X0085594Y0112583D01*
X0086828Y0112583D01*
X0087445Y0113200D01*
X0087445Y0115669D01*
D18*
X0172523Y0238383D02*
X0177828Y0238383D01*
X0179596Y0240151D01*
X0177828Y0241919D01*
X0172523Y0241919D01*
X0172523Y0243688D02*
X0172523Y0238383D01*
X0172523Y0243688D02*
X0174291Y0245456D01*
X0177828Y0245456D01*
X0184033Y0247224D02*
X0184033Y0243688D01*
X0185801Y0241919D01*
X0191106Y0241919D01*
X0191106Y0238383D02*
X0191106Y0248992D01*
X0185801Y0248992D01*
X0184033Y0247224D01*
X0187569Y0241919D02*
X0184033Y0238383D01*
X0195543Y0240151D02*
X0195543Y0243688D01*
X0197311Y0245456D01*
X0200847Y0245456D01*
X0202616Y0243688D01*
X0202616Y0240151D01*
X0200847Y0238383D01*
X0197311Y0238383D01*
X0195543Y0240151D01*
X0207053Y0238383D02*
X0214125Y0238383D01*
X0214125Y0248992D01*
X0218563Y0247224D02*
X0220331Y0248992D01*
X0223867Y0248992D01*
X0225635Y0247224D01*
X0225635Y0240151D01*
X0223867Y0238383D01*
X0220331Y0238383D01*
X0218563Y0240151D01*
X0218563Y0247224D01*
X0230072Y0247224D02*
X0231841Y0248992D01*
X0235377Y0248992D01*
X0237145Y0247224D01*
X0237145Y0245456D01*
X0235377Y0243688D01*
X0231841Y0243688D01*
X0230072Y0241919D01*
X0230072Y0240151D01*
X0231841Y0238383D01*
X0235377Y0238383D01*
X0237145Y0240151D01*
D19*
X0152595Y0198433D03*
D20*
X0252357Y0219776D02*
X0252359Y0219823D01*
X0252365Y0219869D01*
X0252374Y0219915D01*
X0252388Y0219959D01*
X0252405Y0220003D01*
X0252426Y0220044D01*
X0252450Y0220084D01*
X0252477Y0220122D01*
X0252508Y0220157D01*
X0252541Y0220190D01*
X0252577Y0220220D01*
X0252616Y0220246D01*
X0252656Y0220270D01*
X0252698Y0220289D01*
X0252742Y0220306D01*
X0252787Y0220318D01*
X0252833Y0220327D01*
X0252879Y0220332D01*
X0252926Y0220333D01*
X0252972Y0220330D01*
X0253018Y0220323D01*
X0253064Y0220312D01*
X0253108Y0220298D01*
X0253151Y0220280D01*
X0253192Y0220258D01*
X0253232Y0220233D01*
X0253269Y0220205D01*
X0253304Y0220174D01*
X0253336Y0220140D01*
X0253365Y0220103D01*
X0253390Y0220065D01*
X0253413Y0220024D01*
X0253432Y0219981D01*
X0253447Y0219937D01*
X0253459Y0219892D01*
X0253467Y0219846D01*
X0253471Y0219799D01*
X0253471Y0219753D01*
X0253467Y0219706D01*
X0253459Y0219660D01*
X0253447Y0219615D01*
X0253432Y0219571D01*
X0253413Y0219528D01*
X0253390Y0219487D01*
X0253365Y0219449D01*
X0253336Y0219412D01*
X0253304Y0219378D01*
X0253269Y0219347D01*
X0253232Y0219319D01*
X0253193Y0219294D01*
X0253151Y0219272D01*
X0253108Y0219254D01*
X0253064Y0219240D01*
X0253018Y0219229D01*
X0252972Y0219222D01*
X0252926Y0219219D01*
X0252879Y0219220D01*
X0252833Y0219225D01*
X0252787Y0219234D01*
X0252742Y0219246D01*
X0252698Y0219263D01*
X0252656Y0219282D01*
X0252616Y0219306D01*
X0252577Y0219332D01*
X0252541Y0219362D01*
X0252508Y0219395D01*
X0252477Y0219430D01*
X0252450Y0219468D01*
X0252426Y0219508D01*
X0252405Y0219549D01*
X0252388Y0219593D01*
X0252374Y0219637D01*
X0252365Y0219683D01*
X0252359Y0219729D01*
X0252357Y0219776D01*
X0252357Y0154276D02*
X0252359Y0154323D01*
X0252365Y0154369D01*
X0252374Y0154415D01*
X0252388Y0154459D01*
X0252405Y0154503D01*
X0252426Y0154544D01*
X0252450Y0154584D01*
X0252477Y0154622D01*
X0252508Y0154657D01*
X0252541Y0154690D01*
X0252577Y0154720D01*
X0252616Y0154746D01*
X0252656Y0154770D01*
X0252698Y0154789D01*
X0252742Y0154806D01*
X0252787Y0154818D01*
X0252833Y0154827D01*
X0252879Y0154832D01*
X0252926Y0154833D01*
X0252972Y0154830D01*
X0253018Y0154823D01*
X0253064Y0154812D01*
X0253108Y0154798D01*
X0253151Y0154780D01*
X0253192Y0154758D01*
X0253232Y0154733D01*
X0253269Y0154705D01*
X0253304Y0154674D01*
X0253336Y0154640D01*
X0253365Y0154603D01*
X0253390Y0154565D01*
X0253413Y0154524D01*
X0253432Y0154481D01*
X0253447Y0154437D01*
X0253459Y0154392D01*
X0253467Y0154346D01*
X0253471Y0154299D01*
X0253471Y0154253D01*
X0253467Y0154206D01*
X0253459Y0154160D01*
X0253447Y0154115D01*
X0253432Y0154071D01*
X0253413Y0154028D01*
X0253390Y0153987D01*
X0253365Y0153949D01*
X0253336Y0153912D01*
X0253304Y0153878D01*
X0253269Y0153847D01*
X0253232Y0153819D01*
X0253193Y0153794D01*
X0253151Y0153772D01*
X0253108Y0153754D01*
X0253064Y0153740D01*
X0253018Y0153729D01*
X0252972Y0153722D01*
X0252926Y0153719D01*
X0252879Y0153720D01*
X0252833Y0153725D01*
X0252787Y0153734D01*
X0252742Y0153746D01*
X0252698Y0153763D01*
X0252656Y0153782D01*
X0252616Y0153806D01*
X0252577Y0153832D01*
X0252541Y0153862D01*
X0252508Y0153895D01*
X0252477Y0153930D01*
X0252450Y0153968D01*
X0252426Y0154008D01*
X0252405Y0154049D01*
X0252388Y0154093D01*
X0252374Y0154137D01*
X0252365Y0154183D01*
X0252359Y0154229D01*
X0252357Y0154276D01*
M02*
